<svg width="381" height="106" viewBox="0 0 381 106" fill="none" xmlns="http://www.w3.org/2000/svg">
<path d="M110.262 16.0376C111.005 14.1478 111.651 12.2194 112.196 10.2604C112.642 9.27216 112.196 8.51209 111.452 8.20803C110.709 7.90397 110.188 6.9918 110.56 6.07962C111.108 4.57984 111.779 3.1303 112.567 1.74672C112.883 1.16175 113.407 0.724207 114.031 0.525814C114.655 0.327421 115.329 0.383697 115.913 0.682632L121.267 3.11493C123.2 4.10313 123.572 5.1674 122.68 7.2198L117.475 19.1542C114.848 25.0327 112.369 30.8858 110.039 36.7136C109.821 37.3812 109.383 37.9507 108.8 38.3249C108.217 38.6992 107.525 38.855 106.842 38.7659C103.794 38.5879 100.746 39.1074 97.9194 40.2863C94.8922 41.6341 92.2178 43.6914 90.1122 46.2916C86.8235 50.0157 84.9275 54.8079 84.7587 59.8222C84.7587 62.1787 84.7587 62.4827 87.1381 62.1787C90.5392 61.7245 93.9723 61.5719 97.3991 61.7226C101.86 61.7226 106.322 62.5587 110.857 62.8628C115.919 63.5091 121.039 63.5091 126.1 62.8628C127.29 62.8628 127.959 62.1025 127.885 60.6583C127.783 55.131 125.661 49.843 121.936 45.8355C121.44 45.4062 121.113 44.8067 121.017 44.1492C120.922 43.4918 121.063 42.8213 121.416 42.2628C123.051 38.6901 124.464 34.6611 126.026 31.3925C126.026 31.0124 126.844 28.96 127.29 28.808C127.736 28.656 128.108 31.1646 128.703 31.7727C129.297 32.3808 132.495 32.9888 133.238 34.9652C132.624 36.8778 131.853 38.7342 130.933 40.5144C130.665 40.974 130.523 41.4994 130.523 42.0348C130.523 42.5701 130.665 43.0953 130.933 43.5549C133.516 47.6097 135.168 52.2096 135.766 57.0097C136.48 63.028 135.553 69.1307 133.089 74.645C131.494 78.3103 129.189 81.6076 126.314 84.338C123.439 87.0684 120.053 89.1753 116.36 90.5321C109.31 93.2815 101.487 93.0906 94.5736 90.0001C88.1526 87.3246 82.8783 82.3908 79.7026 76.0893C76.8141 70.9294 75.5667 64.9789 76.1335 59.062C76.472 54.6949 77.6334 50.4359 79.5537 46.5196C81.6773 42.2915 84.741 38.6312 88.4987 35.8326C92.2563 33.0339 96.6034 31.1748 101.191 30.4045C102.232 30.4045 104.017 30.4043 104.612 29.036C105.206 27.6678 106.545 25.2353 107.511 23.1069V22.3467C108.255 20.5983 108.924 18.8501 109.742 17.1777C110.56 15.5054 110.411 16.4176 110.262 16.0376Z" fill="#65C2EE"/>
<path d="M255.437 61.7172V38.4474C255.437 35.1987 256.041 34.5942 259.061 34.5942H293.19C296.362 34.5942 296.664 34.9721 296.739 38.2208C296.739 43.0561 296.739 43.056 292.058 43.056H268.349C265.706 43.056 265.177 43.5848 265.177 46.3046C265.177 49.0245 265.177 50.9889 265.177 53.2554C265.177 55.522 265.782 56.2775 268.122 56.2775C272.804 56.2775 277.561 56.2775 282.317 56.2775C286.21 56.2432 290.05 57.178 293.492 58.9974C295.441 60.0867 297.076 61.66 298.24 63.5656C299.403 65.4712 300.057 67.6447 300.137 69.8766C300.582 72.0598 300.54 74.3147 300.012 76.4795C299.484 78.6443 298.485 80.6655 297.085 82.3983C295.685 84.1312 293.919 85.5329 291.915 86.5029C289.91 87.4729 287.715 87.9873 285.489 88.0091C278.51 88.6267 271.501 88.8284 264.498 88.6134H258.835C255.966 88.6134 255.437 88.0845 255.437 85.2135V61.7172ZM274.012 63.9082H267.745C267.399 63.8727 267.049 63.9148 266.722 64.0313C266.394 64.1479 266.097 64.3359 265.851 64.5819C265.605 64.8279 265.417 65.1257 265.3 65.4535C265.184 65.7813 265.142 66.1309 265.177 66.4769V78.6406C265.156 78.9671 265.203 79.2945 265.316 79.6016C265.429 79.9087 265.605 80.1887 265.833 80.4236C266.06 80.6585 266.335 80.8431 266.638 80.9654C266.941 81.0877 267.267 81.1452 267.594 81.1339C271.595 81.1339 275.597 81.1339 279.524 81.1339C281.561 80.9769 283.567 80.5448 285.489 79.8495C286.96 79.2069 288.214 78.1513 289.099 76.8104C289.983 75.4695 290.46 73.9009 290.472 72.2943C290.371 70.7469 289.836 69.2594 288.927 68.003C288.019 66.7467 286.775 65.7725 285.338 65.1925C281.655 64.1452 277.84 63.6364 274.012 63.6816V63.9082Z" fill="#F7F7F7"/>
<path d="M220.026 61.7172V85.1381C220.026 88.6135 220.026 88.6891 216.401 88.6891H212.702C211.267 88.6891 210.587 88.009 210.587 86.498V47.2868C210.587 43.7359 210.059 43.207 206.661 43.207H192.919C190.352 43.207 189.597 44.1892 189.446 46.7579C189.446 54.313 188.842 62.3971 188.087 70.1789C187.836 75.0686 186.44 79.8308 184.009 84.0803C182.584 86.2644 180.487 87.9248 178.035 88.8108C175.583 89.6968 172.909 89.7601 170.418 88.9911C169.984 88.7498 169.609 88.4142 169.322 88.0089C169.034 87.6036 168.841 87.1388 168.757 86.649C168.746 84.8724 168.923 83.0998 169.286 81.3606C169.375 81.0927 169.534 80.8534 169.746 80.6675C169.958 80.4816 170.217 80.3555 170.494 80.3027C172.337 80.3184 174.123 79.6587 175.514 78.4479C176.905 77.237 177.805 75.5589 178.044 73.7298C178.969 69.4463 179.599 65.1045 179.932 60.735C180.385 53.1798 180.46 46.078 180.763 38.7495C180.763 35.5763 181.744 34.5942 184.84 34.5942H216.477C219.346 34.5942 219.799 35.0476 219.799 37.9185L220.026 61.7172Z" fill="#F7F7F7"/>
<path d="M353.143 75.996H342.421C341.6 75.9147 340.776 76.1283 340.099 76.599C339.421 77.0696 338.932 77.7666 338.721 78.5648C337.664 81.2846 336.456 83.9289 335.323 86.5732C335.141 87.1435 334.776 87.6377 334.284 87.9792C333.793 88.3207 333.203 88.4904 332.605 88.462H327.546C325.507 88.462 324.903 87.4798 325.658 85.6666C326.942 82.4179 328.452 79.1692 329.811 75.996C334.19 66.0233 338.645 56.126 343.025 46.2288C344.459 42.9801 345.894 39.8069 347.253 36.5582C347.514 35.8639 347.994 35.2739 348.622 34.8783C349.249 34.4827 349.988 34.3032 350.726 34.3671H355.483C356.214 34.3488 356.932 34.5568 357.541 34.9625C358.149 35.3681 358.617 35.9517 358.881 36.6336C363.109 46.3042 367.413 55.9747 371.717 65.6453C374.586 72.1427 377.456 78.5646 380.249 85.0621C381.382 87.5553 380.778 88.462 378.06 88.462C370.131 88.462 371.944 89.0662 368.848 82.4177C368.244 81.1334 367.715 79.698 367.187 78.3381C366.982 77.6277 366.541 77.0084 365.937 76.5826C365.333 76.1568 364.602 75.9499 363.864 75.996H353.143ZM353.143 68.063C355.483 68.063 357.748 68.063 360.014 68.063C362.279 68.063 362.732 67.0052 361.977 65.192C359.712 59.7523 357.447 54.3883 355.03 49.0241C354.875 48.635 354.63 48.288 354.315 48.0122C354 47.7363 353.624 47.5393 353.218 47.4374C352.69 47.4374 351.859 48.2685 351.557 48.9485C349.216 54.3127 346.951 59.6769 344.686 65.1166C343.855 67.081 344.686 68.063 346.649 68.063C348.612 68.063 350.726 68.063 352.841 68.063H353.143Z" fill="#F7F7F7"/>
<path d="M0 61.717V37.9183C0 35.0474 0.452981 34.5184 3.2467 34.5184H6.94666C8.98532 34.5184 9.66477 35.3494 9.66477 37.5404C9.66477 42.9801 9.66477 48.4199 9.66477 53.8596C9.66477 56.8061 9.66478 57.2595 12.987 57.2595C21.1417 57.2595 19.0276 58.0906 23.6334 51.4421L33.5247 36.7095C33.9179 35.9872 34.5131 35.3954 35.2372 35.0063C35.9614 34.6172 36.7832 34.4476 37.6021 34.5184H41.3018C43.718 34.5184 44.4732 36.0295 43.0385 38.0693C38.5837 44.5668 34.1288 51.0642 29.5985 57.4861C27.4088 60.6593 27.3333 60.886 29.5985 64.1347L43.416 84.5334L44.1711 85.7423C45.0017 87.4799 44.171 88.4621 42.6609 88.6132C40.625 88.7642 38.5808 88.7642 36.5449 88.6132C36.0048 88.5288 35.4866 88.3387 35.0202 88.0534C34.5537 87.7682 34.1482 87.3935 33.8268 86.9511C29.3719 80.6048 24.9924 74.2584 20.6886 67.761C20.3249 67.1577 19.7999 66.6683 19.1728 66.3479C18.5457 66.0274 17.8417 65.8888 17.14 65.9478H12.3075C10.4199 65.9478 9.81592 66.4767 9.81592 68.5165C9.81592 73.654 9.81592 78.716 9.81592 83.6268C9.81592 88.5377 9.81581 88.4622 4.98343 88.4622C0.15104 88.4622 0.0755798 88.4621 0.0755798 83.4002L0 61.717Z" fill="#F7F7F7"/>
<path d="M109.257 15.4048C109.375 15.4216 109.488 15.4638 109.588 15.5282C109.688 15.5926 109.774 15.6778 109.838 15.7781C109.903 15.8785 109.945 15.9916 109.962 16.1097C109.979 16.2277 109.97 16.3482 109.936 16.4627C108.879 18.7292 107.973 20.9957 106.992 22.8089C106.767 23.1282 106.455 23.3762 106.094 23.5235C105.733 23.6708 105.337 23.7111 104.953 23.6399C96.3927 23.6829 88.1555 26.9153 81.848 32.7062C75.4416 38.3747 71.2653 46.1431 70.0691 54.616C68.6908 62.9644 70.2674 71.5323 74.5267 78.8421C78.7859 86.152 85.4608 91.7456 93.4004 94.6582C99.826 97.2077 106.873 97.7497 113.612 96.2122C120.352 94.6747 126.467 91.13 131.153 86.0454C134.757 82.3986 137.556 78.0353 139.368 73.238C141.18 68.4408 141.966 63.3162 141.674 58.196C141.382 53.0758 140.02 48.0739 137.674 43.5139C135.329 38.9538 132.052 34.9373 128.058 31.724C125.46 29.827 122.735 28.1106 119.903 26.5865C118.922 26.0577 118.468 25.5287 119.148 24.3955C119.854 23.0463 120.484 21.6592 121.036 20.2402C121.564 18.8803 122.244 18.7292 123.452 19.258C132.831 23.643 140.427 31.1102 144.974 40.4165C149.522 49.7227 150.746 60.3065 148.444 70.4062C146.899 77.8939 143.382 84.8326 138.258 90.5043C133.134 96.1761 126.589 100.375 119.299 102.667C112.037 105.303 104.161 105.749 96.6474 103.951C89.1324 102.419 82.1618 98.9088 76.4546 93.7825C70.7474 88.6562 66.51 82.0995 64.1796 74.7883C61.9438 68.4973 61.2196 61.768 62.0655 55.1449C63.1461 44.5886 67.9927 34.7755 75.7171 27.5044C83.4414 20.2333 93.5261 15.9914 104.122 15.5561C105.829 15.3925 107.544 15.3419 109.257 15.4048Z" fill="#F7F7F7"/>
<path d="M133.362 12.5136L130 20.1794C132.636 21.6939 135.129 23.4496 137.446 25.4243C137.446 24.9401 138.246 23.6492 138.486 23.2457C138.727 22.8423 139.607 21.7932 140.648 22.4387C141.689 23.0843 142.489 22.4388 142.89 21.7126C143.646 20.2034 144.288 18.6388 144.811 17.0323C145.074 16.358 145.062 15.6063 144.777 14.9411C144.492 14.276 143.958 13.7515 143.29 13.4821C141.369 12.5945 139.527 11.6261 137.606 10.8192C135.684 10.0122 134.323 10.3349 133.362 12.5136Z" fill="#65C2EE"/>
</svg>
