<svg width="547" height="206" viewBox="0 0 547 206" fill="none" xmlns="http://www.w3.org/2000/svg">
<path d="M12.7548 22.4973C10.5975 22.4973 9.5189 23.4693 9.5189 25.1972V35.6999C9.58503 36.7004 9.43797 37.7035 9.08746 38.6428C8.79084 39.2098 8.57512 39.4798 8.44029 39.4798H0C0.822043 38.0675 1.19806 36.4392 1.07863 34.8089V25.8722C1.0309 25.0875 1.14514 24.3013 1.41422 23.5627C1.68331 22.8241 2.10148 22.149 2.64265 21.5793C4.20009 20.3716 6.07294 19.6403 8.0358 19.4734C3.42466 19.2304 1.13258 17.0975 1.13258 13.0476V4.67788C1.24104 3.06566 0.865392 1.45781 0.053943 0.0610352H8.49421C8.74589 0.169032 8.9886 0.520019 9.2223 1.114C9.49851 1.98595 9.61721 2.90023 9.57285 3.81391V13.6146C9.57285 15.4235 10.6515 16.3145 12.7548 16.3145V0.0610352H23.0018V16.3955C25.159 16.3955 26.2107 15.3965 26.2107 13.6956V3.78692C26.149 2.80189 26.3055 1.81538 26.6691 0.898012C26.9657 0.33103 27.1815 0.0610352 27.3163 0.0610352H35.7566C34.9451 1.45781 34.5695 3.06566 34.6779 4.67788V12.9936C34.6779 17.0435 32.3589 19.1764 27.7477 19.4194C29.7106 19.5863 31.5835 20.3176 33.1409 21.5253C33.6875 22.0912 34.1093 22.7657 34.3787 23.5053C34.6481 24.2449 34.7593 25.0329 34.7049 25.8182V34.6739C34.5936 36.3069 34.9791 37.9354 35.8105 39.3448H27.3702C27.1006 39.3448 26.8579 38.8858 26.6152 38.2648C26.3538 37.3896 26.2355 36.4779 26.2646 35.5649V25.2782C26.2646 23.4693 25.186 22.5783 23.0018 22.5783V39.4798H12.7548V22.4973ZM38.2644 0.08804H55.2798V7.94478H48.4844V15.4235H54.8483V22.9023H48.4844V31.542H55.9809V39.3988H38.2644V0.08804ZM82.3803 0.08804V39.3988H72.1873V22.9023H69.1132V39.3988H58.8932V0.08804H69.1132V14.1006H72.1873V0.08804H82.3803ZM125.229 46.1755H118.191V39.3988H86.4791V0.0610352H96.7261V31.542H99.6654V0.0610352H109.912V31.542H112.933V0.0610352H123.153V31.542H125.229V46.1755ZM151.035 39.3988H142.487V21.4983L137.094 39.3988H128.141V0.0610352H136.689V17.8265L142.406 0.0610352H150.954L151.035 39.3988ZM178.675 0.08804V39.3988H168.455V22.9023H165.408V39.3988H155.188V0.08804H165.408V14.1006H168.455V0.08804H178.675ZM206.477 30.3001C206.632 32.4676 206.243 34.6396 205.344 36.6178C204.98 37.2469 204.481 37.7882 203.885 38.2034C203.289 38.6186 202.608 38.8976 201.892 39.0208C199.45 39.4114 196.976 39.574 194.504 39.5068H182.693V0.0610352H192.913V13.5606H194.504C196.899 13.4943 199.295 13.6844 201.65 14.1276C202.39 14.271 203.095 14.5624 203.72 14.9846C204.346 15.4068 204.88 15.9509 205.29 16.5845C206.207 18.4426 206.616 20.5105 206.477 22.5783V30.3001ZM196.257 29.1121V23.4423C196.381 22.4059 196.203 21.3556 195.744 20.4184C195.421 20.0674 194.477 19.8784 192.913 19.8244V32.73C193.839 32.8231 194.774 32.6548 195.609 32.244C196.014 31.812 196.257 30.759 196.257 29.0041V29.1121ZM220.202 39.5068H209.955V0.0610352H220.202V39.5068ZM47.3788 204.201H31.8196V172.396L19.4153 204.093H3.2359V145.424H18.7951V176.851L30.9836 145.424H47.4597L47.3788 204.201ZM2.61568 47.6065H25.6175C31.1793 47.4121 36.7414 47.9844 42.1475 49.3074C45.8947 50.4398 49.1105 52.8833 51.208 56.1922C53.4911 59.5581 54.6326 65.0839 54.6326 72.7697C54.9662 76.5381 54.1077 80.3162 52.1787 83.5693C49.5633 86.1434 46.1861 87.8009 42.5519 88.2942C46.7663 88.8809 50.6114 91.0176 53.3382 94.288C55.498 98.2194 56.481 102.69 56.1696 107.167V115.401C56.4242 119.942 55.7261 124.485 54.1202 128.739C53.4962 130.128 52.5919 131.373 51.4642 132.395C50.3365 133.417 49.0099 134.195 47.5676 134.679C41.5305 136.054 35.3331 136.59 29.15 136.272H2.61568V47.6065ZM25.6714 62.699V82.4624H27.9904C30.2556 82.4624 31.6847 81.8954 32.305 80.7884C33.1862 77.6751 33.5058 74.4294 33.2488 71.2037C33.3651 69.2275 33.0996 67.2474 32.4668 65.3719C32.2945 64.9035 32.0288 64.4752 31.6857 64.1131C31.3426 63.751 30.9294 63.4628 30.4713 63.266C28.9039 62.8626 27.2895 62.6719 25.6714 62.699ZM25.6714 96.2859V121.152C27.8613 121.352 30.0549 120.81 31.9005 119.613C33.0732 117.571 33.5467 115.2 33.2488 112.863V104.548C33.2488 100.741 32.8443 98.4458 32.0353 97.6359C30.1063 96.5315 27.8837 96.0506 25.6714 96.2589V96.2859ZM122.964 47.5255V136.353H99.8811V99.0128H92.9779V136.326H69.8952V47.4985H92.9779V79.2495H99.8811V47.4985L122.964 47.5255ZM172.122 47.5255L185.309 136.353H161.714L160.473 120.396H152.222L150.846 136.353H126.982L138.766 47.5255H172.122ZM159.799 104.602C158.63 94.558 157.462 82.1204 156.293 67.2888C153.956 84.2983 152.473 96.7359 151.844 104.602H159.799ZM234.845 47.4175L228.562 106.303C228.024 112.904 226.95 119.45 225.353 125.877C224.9 127.617 224.082 129.24 222.951 130.637C221.821 132.034 220.406 133.172 218.8 133.977C213.635 135.907 208.122 136.726 202.621 136.38H189.138V124.797H190.513C192.422 124.98 194.349 124.731 196.149 124.068C196.498 123.8 196.776 123.451 196.959 123.051C197.142 122.651 197.225 122.212 197.2 121.773C197.2 121.773 196.769 119.073 195.906 114.267L184.068 47.4175H204.104L211.438 102.793L214.998 47.4175H234.845ZM239.456 47.4175H262.592V84.9733C266.934 84.9733 269.172 82.4353 269.334 77.7105L269.765 60.3771C269.909 53.9873 271.15 49.6674 273.487 47.4175H294.816C292.74 49.5774 291.715 54.0593 291.742 60.9171L291.931 76.1986C291.931 85.4323 286.808 90.6701 276.372 91.966C286.808 93.235 292.012 98.5538 291.931 107.923V122.097C291.931 128.811 292.956 133.599 295.005 136.461H273.675C271.194 134.22 269.954 129.927 269.954 123.501V106.033C270.011 105.067 269.866 104.1 269.528 103.194C269.19 102.288 268.666 101.463 267.991 100.771C267.315 100.08 266.503 99.5375 265.606 99.1788C264.709 98.8202 263.746 98.6533 262.781 98.6888V136.326H239.645L239.456 47.4175ZM299.643 47.4175H338.096V65.3989H322.699V82.2464H337.126V99.1478H322.699V118.695H339.633V136.461H299.724L299.643 47.4175ZM101.553 145.424V157.709H91.3599V204.093H73.5086V157.709H63.2616V145.424H101.553ZM145.561 175.798H122.451V188.488C122.324 190.218 122.516 191.957 123.018 193.618C123.229 194.009 123.553 194.329 123.947 194.536C124.34 194.742 124.787 194.827 125.229 194.779C125.782 194.832 126.338 194.712 126.82 194.437C127.303 194.161 127.689 193.743 127.925 193.24C128.502 191.335 128.731 189.34 128.6 187.354V179.605H145.534V183.952C145.605 186.75 145.37 189.548 144.833 192.295C144.213 194.571 143.13 196.694 141.651 198.532C139.987 200.714 137.784 202.426 135.26 203.499C132.169 204.702 128.868 205.271 125.552 205.173C122.154 205.238 118.773 204.68 115.575 203.526C112.985 202.628 110.665 201.086 108.834 199.045C107.284 197.215 106.152 195.068 105.517 192.754C104.788 189.485 104.471 186.138 104.573 182.791V165.674C104.398 161.522 105.106 157.381 106.649 153.524C108.084 150.545 110.49 148.144 113.472 146.72C116.836 145.11 120.529 144.306 124.258 144.371C128.558 144.164 132.837 145.095 136.662 147.071C139.781 148.778 142.232 151.49 143.62 154.766C145.101 159.022 145.769 163.519 145.588 168.023L145.561 175.798ZM127.656 166.241V161.948C127.764 159.982 127.601 158.01 127.17 156.089C127.043 155.676 126.778 155.32 126.419 155.079C126.061 154.839 125.632 154.728 125.202 154.766C123.961 154.766 123.179 155.117 122.883 155.873C122.492 157.873 122.347 159.913 122.451 161.948V166.241H127.656ZM186.765 145.424L179.646 173.395L188.275 204.039H170.909C169.111 196.318 167.808 189.658 166.999 184.06C165.812 191.026 164.518 197.686 163.116 204.039H148.204L155.889 173.395L148.204 145.424H163.116C165.525 157.412 166.819 164.225 166.999 165.863C168.725 155.846 170.019 149.015 170.909 145.424H186.765ZM232.606 204.093H214.863V182.494H208.337V204.093H190.621V145.424H208.337V166.511H214.755V145.424H232.606V204.093ZM279.338 166.025V180.415C279.439 184.292 279.177 188.17 278.556 191.998C277.987 194.539 276.822 196.908 275.158 198.91C273.388 201.064 271.068 202.697 268.444 203.634C265.434 204.709 262.255 205.23 259.06 205.173C255.677 205.255 252.302 204.809 249.056 203.85C246.599 203.176 244.383 201.819 242.665 199.936C241.102 198.091 239.985 195.911 239.402 193.564C238.64 189.88 238.314 186.119 238.431 182.359V167.321C238.264 162.983 238.866 158.65 240.211 154.523C241.436 151.415 243.68 148.816 246.575 147.152C250.163 145.192 254.221 144.257 258.305 144.452C261.831 144.364 265.34 144.97 268.633 146.234C270.966 147.11 273.066 148.513 274.769 150.335C276.471 152.157 277.73 154.348 278.448 156.737C279.087 159.789 279.34 162.909 279.203 166.025H279.338ZM261.487 161.597C261.603 159.693 261.44 157.783 261.001 155.927C260.829 155.533 260.533 155.207 260.158 154.997C259.783 154.787 259.35 154.706 258.925 154.766C258.497 154.713 258.063 154.797 257.686 155.006C257.308 155.214 257.006 155.536 256.822 155.927C256.34 157.776 256.158 159.69 256.282 161.597V188.11C256.174 189.927 256.356 191.75 256.822 193.51C257.031 193.88 257.334 194.189 257.702 194.404C258.069 194.618 258.486 194.731 258.912 194.731C259.337 194.731 259.754 194.618 260.121 194.404C260.489 194.189 260.792 193.88 261.001 193.51C261.427 191.9 261.591 190.231 261.487 188.569V161.597ZM312.344 204.093V157.709H306.007V187.408C306.275 191.349 305.648 195.3 304.173 198.964C303.587 200.082 302.757 201.054 301.744 201.807C300.731 202.559 299.561 203.073 298.322 203.31C293.989 203.994 289.601 204.274 285.217 204.147H282.304V194.563C283.916 194.668 285.528 194.371 286.996 193.699C287.832 193.159 288.264 191.242 288.264 187.921V145.424H330.061V204.093H312.344ZM376.334 166.025V180.415C376.435 184.292 376.173 188.17 375.552 191.998C374.983 194.544 373.808 196.915 372.127 198.91C370.373 201.069 368.059 202.703 365.44 203.634C362.43 204.709 359.251 205.23 356.056 205.173C352.664 205.253 349.28 204.807 346.024 203.85C343.577 203.172 341.371 201.814 339.66 199.936C338.098 198.091 336.981 195.911 336.398 193.564C335.636 189.88 335.31 186.119 335.427 182.359V167.321C335.259 162.983 335.862 158.65 337.207 154.523C338.423 151.409 340.669 148.808 343.57 147.152C347.159 145.192 351.217 144.257 355.301 144.452C358.826 144.364 362.335 144.97 365.628 146.234C368.192 147.217 370.472 148.822 372.262 150.905C373.729 152.633 374.821 154.646 375.471 156.818C376.093 159.845 376.338 162.937 376.199 166.025H376.334ZM358.483 161.597C358.599 159.693 358.435 157.783 357.997 155.927C357.825 155.533 357.529 155.207 357.154 154.997C356.779 154.787 356.346 154.706 355.921 154.766C355.493 154.713 355.059 154.797 354.681 155.006C354.304 155.214 354.001 155.536 353.817 155.927C353.336 157.776 353.154 159.69 353.278 161.597V188.11C353.17 189.927 353.352 191.75 353.817 193.51C353.979 193.918 354.269 194.263 354.644 194.492C355.018 194.721 355.457 194.821 355.894 194.779C356.322 194.831 356.756 194.747 357.133 194.539C357.511 194.331 357.813 194.008 357.997 193.618C358.423 192.008 358.587 190.339 358.483 188.677V161.597ZM382.212 204.093V145.424H410.257V155.549H399.794V204.147L382.212 204.093ZM457.716 204.093H442.157V172.396L429.456 204.093H413.277V145.424H428.809V176.851L441.025 145.424H457.501L457.716 204.093ZM503.936 204.093H486.084V181.009C485.234 180.909 484.371 180.989 483.553 181.245C482.736 181.501 481.981 181.926 481.338 182.494C480.312 184.097 479.856 185.999 480.044 187.894V204.093H463.703V190.351C463.62 187.809 463.81 185.265 464.269 182.764C464.654 181.241 465.623 179.931 466.966 179.119C469.165 177.896 471.525 176.987 473.977 176.419C469.716 176.041 466.939 174.826 465.671 172.774C464.133 169.328 463.484 165.549 463.784 161.786C463.784 155.936 465.465 151.742 468.826 149.204C472.188 146.666 479.487 145.388 490.723 145.37H503.909L503.936 204.093ZM486.084 170.857V156.818H484.278C483.711 156.791 483.146 156.877 482.613 157.072C482.081 157.267 481.592 157.566 481.177 157.952C480.18 159.564 479.779 161.475 480.044 163.352V164.108C479.827 166.004 480.285 167.917 481.338 169.508C482.686 170.557 484.387 171.041 486.084 170.857ZM545.409 145.424L538.398 173.395L547 204.039H529.661C527.863 196.318 526.551 189.658 525.724 184.06C524.538 191.026 523.252 197.686 521.868 204.039H506.929L514.614 173.395L506.929 145.37H521.868C524.277 157.358 525.562 164.171 525.724 165.809C527.45 155.792 528.771 148.961 529.661 145.37L545.409 145.424Z" fill="url(#paint0_linear_195_13343)"/>
<defs>
<linearGradient id="paint0_linear_195_13343" x1="337.503" y1="-2.2609" x2="92.4301" y2="396.435" gradientUnits="userSpaceOnUse">
<stop offset="0.03" stop-color="#A973AE"/>
<stop offset="0.06" stop-color="#A073AB"/>
<stop offset="0.1" stop-color="#8973A4"/>
<stop offset="0.16" stop-color="#637298"/>
<stop offset="0.22" stop-color="#2F7287"/>
<stop offset="0.23" stop-color="#267284"/>
<stop offset="0.29" stop-color="#295671"/>
<stop offset="0.35" stop-color="#2C3B5E"/>
<stop offset="0.41" stop-color="#2D2B53"/>
<stop offset="0.46" stop-color="#2A2249"/>
<stop offset="0.49" stop-color="#1E1835"/>
<stop offset="0.52" stop-color="#161127"/>
<stop offset="0.56" stop-color="#110D1F"/>
<stop offset="0.63" stop-color="#0F0C1C"/>
</linearGradient>
</defs>
</svg>
