<svg width="599" height="713" viewBox="0 0 599 713" fill="none" xmlns="http://www.w3.org/2000/svg">
<g opacity="0.23">
<path d="M527.43 0.405273L537.622 2.59678C533.966 19.3005 530.724 35.4866 526.775 51.5173C525.55 56.4871 526.775 59.3688 530.414 62.6129C542.175 72.9665 553.471 83.9067 565.284 94.243C568.733 97.2973 569.216 100.11 568.25 104.303C564.577 120.006 561.059 135.761 557.903 151.585C557.725 153.05 557.862 154.536 558.306 155.944C558.749 157.351 559.488 158.648 560.473 159.747C572.7 171.481 585.324 182.818 598.413 194.742L591.515 202.524C587.772 199.176 584.271 196.088 580.822 192.947C573.665 186.441 565.802 180.54 559.61 173.189C552.574 164.854 545.624 164.561 536.105 168.236C523.515 173.189 510.236 176.519 497.44 180.816C495.982 181.441 494.364 181.59 492.817 181.243C491.269 180.896 489.87 180.071 488.817 178.883C475.124 166.166 461.138 153.707 447.566 140.92C446.674 139.871 446.016 138.643 445.635 137.319C445.254 135.995 445.16 134.605 445.358 133.241C449.083 114.916 453.107 96.6474 457.43 78.4366C457.865 77.1343 458.573 75.9401 459.507 74.9342C460.441 73.9282 461.579 73.1338 462.845 72.6041C478.32 67.3238 493.893 62.3598 509.564 57.7122C513.91 56.418 515.669 54.261 516.548 49.878C519.98 33.3986 523.757 17.0745 527.43 0.405273ZM520.532 162.49C527.706 160.212 535.001 158.194 542.003 155.588C543.177 155.075 544.232 154.324 545.101 153.382C545.971 152.441 546.636 151.329 547.056 150.118C550.654 135.646 553.896 121.105 556.782 106.495C556.956 105.138 556.84 103.759 556.442 102.45C556.043 101.141 555.372 99.9319 554.471 98.9021C543.767 88.6291 532.805 78.6322 521.584 68.9113C520.48 68.0883 519.215 67.5089 517.871 67.2114C516.528 66.914 515.136 66.9052 513.789 67.1857C499.751 71.3272 485.805 75.8022 471.951 80.6108C470.693 81.1567 469.564 81.9611 468.637 82.9719C467.71 83.9826 467.006 85.1771 466.57 86.4779C463.121 100.662 460.19 115.019 456.792 129.255C456.278 130.864 456.29 132.595 456.827 134.196C457.363 135.798 458.396 137.186 459.776 138.159C469.45 146.787 479.091 155.277 488.283 164.337C493.094 169.065 497.492 171.015 504.08 167.943C509.288 165.441 515.082 164.233 520.618 162.49H520.532Z" fill="#906FCC"/>
<path d="M399.658 330.925L389.655 328.768C392.518 315.654 394.381 302.436 398.399 289.908C402.02 278.64 399.606 271.444 390.276 264.317C379.567 256.138 370.013 246.388 360.321 236.932C359.314 235.861 358.545 234.59 358.064 233.201C357.582 231.813 357.399 230.338 357.527 228.874C361.194 210.536 365.218 192.268 369.599 174.069C370.018 172.761 370.713 171.558 371.635 170.54C372.557 169.522 373.685 168.713 374.945 168.167C392.846 162.151 410.879 156.433 429.044 151.015C430.302 150.767 431.598 150.793 432.845 151.09C434.092 151.388 435.26 151.951 436.27 152.74C450.423 165.268 464.386 178.02 478.16 190.997C479.051 192.05 479.707 193.281 480.085 194.608C480.463 195.935 480.553 197.328 480.35 198.693C476.625 217.019 472.601 235.281 468.278 253.481C467.849 254.782 467.149 255.978 466.225 256.989C465.3 258.001 464.172 258.804 462.914 259.348C447.652 264.524 432.252 269.373 416.817 274.05C415.273 274.378 413.872 275.185 412.813 276.356C411.754 277.527 411.091 279.003 410.919 280.572C407.901 295.309 404.538 309.907 401.279 324.661C400.779 326.646 400.227 328.682 399.658 330.925ZM432.217 258.347C439.374 256.069 446.652 254.084 453.654 251.358C454.927 250.846 456.081 250.075 457.042 249.095C458.004 248.115 458.753 246.947 459.241 245.664C462.828 231.082 466.001 216.329 468.95 201.626C469.11 200.451 469.018 199.255 468.679 198.118C468.34 196.981 467.762 195.93 466.984 195.035C456.085 184.681 445.014 174.517 433.683 164.664C432.58 163.841 431.315 163.262 429.971 162.964C428.627 162.667 427.236 162.658 425.888 162.939C411.666 167.08 397.537 171.555 383.499 176.364C382.341 176.885 381.307 177.644 380.463 178.593C379.619 179.542 378.984 180.658 378.601 181.868C375.071 196.478 371.823 211.157 368.857 225.906C368.689 227.071 368.772 228.258 369.099 229.389C369.426 230.52 369.99 231.567 370.754 232.463C381.803 242.954 393.064 253.227 404.538 263.282C405.488 263.976 406.573 264.463 407.722 264.713C408.871 264.963 410.06 264.969 411.212 264.731C418.352 262.937 425.25 260.486 432.217 258.347Z" fill="#906FCC"/>
<path d="M287.975 12.5544L295.08 4.92725C307.152 15.9193 319.224 26.5144 330.727 37.7135C335.194 42.062 338.953 42.8903 344.8 40.8023C359.407 35.6256 374.307 31.3978 389.017 26.5317C390.475 25.9072 392.093 25.7578 393.64 26.1047C395.188 26.4516 396.587 27.2772 397.64 28.4643C411.316 41.2337 425.233 53.7098 438.857 66.5482C439.73 67.4817 440.392 68.5917 440.8 69.8032C441.207 71.0148 441.35 72.2997 441.219 73.5713C437.368 92.0697 433.258 110.522 428.889 128.928C428.478 130.236 427.789 131.439 426.869 132.455C425.949 133.471 424.82 134.275 423.56 134.813C405.832 140.783 387.913 146.202 370.099 152.069C368.632 152.686 367.009 152.823 365.46 152.46C363.911 152.097 362.516 151.254 361.476 150.05C347.8 137.315 333.883 124.873 320.259 112.087C319.368 111.036 318.709 109.809 318.325 108.485C317.942 107.162 317.843 105.772 318.034 104.408C321.277 88.1699 325.174 72.0701 328.382 55.815C328.578 54.3518 328.46 52.8634 328.035 51.4497C327.61 50.0361 326.887 48.7297 325.916 47.6184C313.637 35.8844 301.013 24.5645 287.975 12.5544ZM393.535 133.225L393.622 133.536C400.813 131.258 408.074 129.222 415.11 126.633C416.207 126.17 417.196 125.485 418.015 124.621C418.834 123.757 419.465 122.732 419.87 121.612C423.434 106.772 426.722 91.8569 429.734 76.8672C429.864 75.7928 429.764 74.7029 429.44 73.6704C429.116 72.6378 428.575 71.6863 427.854 70.8794C416.783 60.3706 405.573 49.9997 394.105 39.9395C393.045 39.2 391.841 38.6944 390.571 38.4564C389.302 38.2184 387.996 38.2534 386.741 38.5591C372.496 42.7465 358.349 47.2388 344.299 52.0359C343.124 52.5395 342.071 53.2902 341.211 54.237C340.351 55.1838 339.704 56.3046 339.315 57.5233C335.763 72.1333 332.521 86.8297 329.589 101.612C329.5 102.868 329.669 104.129 330.088 105.316C330.506 106.504 331.164 107.592 332.021 108.515C337.194 113.898 342.971 118.868 348.594 123.855C355.13 129.688 361.062 138.764 368.529 140.3C375.997 141.836 385.085 135.831 393.484 133.225H393.535Z" fill="#906FCC"/>
<path d="M551.574 110.033L544.555 117.815L504.459 81.198L511.357 73.312L551.574 110.033Z" fill="#906FCC"/>
<path d="M421.266 250.047L414.247 257.795L375.773 222.662L382.792 214.896L421.266 250.047Z" fill="#906FCC"/>
<path d="M346.869 72.4834L343.955 63.355L392.691 47.8247L395.588 56.9876L346.869 72.4834Z" fill="#906FCC"/>
</g>
<path opacity="0.74" d="M248.604 437.117C309.608 437.117 359.062 387.634 359.062 326.593C359.062 265.552 309.608 216.069 248.604 216.069C187.6 216.069 138.146 265.552 138.146 326.593C138.146 387.634 187.6 437.117 248.604 437.117Z" fill="url(#paint0_linear_5401_2277)"/>
<mask id="mask0_5401_2277" style="mask-type:luminance" maskUnits="userSpaceOnUse" x="244" y="295" width="238" height="238">
<path d="M362.89 532.577C428.447 532.577 481.592 479.401 481.592 413.805C481.592 348.209 428.447 295.032 362.89 295.032C297.333 295.032 244.189 348.209 244.189 413.805C244.189 479.401 297.333 532.577 362.89 532.577Z" fill="white"/>
</mask>
<g mask="url(#mask0_5401_2277)">
<path d="M362.89 532.56C428.447 532.56 481.591 479.384 481.591 413.788C481.591 348.191 428.447 295.015 362.89 295.015C297.333 295.015 244.189 348.191 244.189 413.788C244.189 479.384 297.333 532.56 362.89 532.56Z" fill="url(#paint1_linear_5401_2277)"/>
<g opacity="0.04">
<path d="M460.62 402.572C459.731 402.641 458.837 402.641 457.947 402.572C456.102 402.209 454.377 401.39 452.929 400.19C450.338 398.202 448.018 395.881 446.031 393.288C443.431 390.013 441.073 386.553 438.977 382.934C438.477 382.106 438.012 381.209 437.529 380.415L437.373 380.225L434.89 382.434C431.404 385.578 427.66 388.424 423.698 390.941C421.531 392.34 419.218 393.497 416.799 394.392C415.119 395.048 413.325 395.359 411.522 395.307C410.258 395.287 409.038 394.836 408.064 394.031C407.089 393.225 406.417 392.111 406.159 390.872C405.667 388.668 405.667 386.382 406.159 384.177C406.778 380.934 407.749 377.769 409.056 374.738C410.802 370.575 412.836 366.539 415.144 362.659L415.368 362.245L411.815 361.088C406.565 359.398 401.521 357.123 396.777 354.307C394.479 352.975 392.417 351.272 390.672 349.268C389.696 348.177 389.05 346.83 388.81 345.386C388.679 344.377 388.816 343.352 389.207 342.413C389.597 341.474 390.227 340.654 391.035 340.036C392.858 338.524 394.979 337.413 397.26 336.775C403.686 334.919 410.354 334.041 417.041 334.169H419.645H419.748C419.662 333.703 419.559 333.22 419.455 332.737C418.217 327.246 417.535 321.644 417.42 316.016C417.324 313.027 417.69 310.041 418.507 307.164C418.877 305.808 419.535 304.548 420.438 303.471C421.09 302.669 421.958 302.072 422.94 301.751C423.922 301.429 424.975 301.398 425.974 301.659C427.965 302.17 429.812 303.132 431.372 304.472C434.394 306.934 437.073 309.789 439.339 312.962C441.877 316.32 444.182 319.848 446.238 323.522L446.514 323.936C447.669 322.936 448.79 321.935 449.963 320.968C453.061 318.296 456.352 315.856 459.81 313.669C462.331 312.044 465.041 310.734 467.881 309.769C469.505 309.19 471.23 308.95 472.951 309.062C473.858 309.077 474.744 309.331 475.522 309.797C476.3 310.264 476.942 310.927 477.383 311.719C478.078 313.025 478.434 314.485 478.418 315.964C478.411 318.734 477.957 321.484 477.073 324.109C475.728 328.423 473.954 332.591 471.778 336.551C470.899 338.276 469.95 339.812 469.036 341.451C468.969 341.555 468.911 341.665 468.864 341.779L472.675 343.091C477.697 344.774 482.516 347.014 487.041 349.769C489.502 351.224 491.691 353.099 493.508 355.308C494.473 356.464 495.073 357.882 495.232 359.38C495.302 360.162 495.2 360.95 494.935 361.689C494.67 362.428 494.248 363.1 493.697 363.66C492.683 364.708 491.477 365.552 490.145 366.144C486.402 367.791 482.42 368.828 478.349 369.216C473.772 369.766 469.161 369.991 464.552 369.889H463.88C464.035 370.631 464.19 371.304 464.328 371.994C465.754 378.06 466.42 384.28 466.312 390.51C466.283 393.065 465.823 395.597 464.949 397.999C464.44 399.522 463.47 400.849 462.173 401.795L461.672 402.14L460.62 402.572ZM428.785 356.947L431.631 363.384C431.742 363.694 431.936 363.969 432.191 364.179C432.446 364.388 432.753 364.525 433.079 364.574C437.753 365.558 442.478 366.196 447.221 366.748C447.398 366.755 447.571 366.693 447.704 366.576C450.515 363.401 453.274 360.174 455.809 356.775C456.292 356.119 456.74 355.446 457.189 354.773C457.277 354.628 457.308 354.456 457.275 354.29C456.533 352.081 455.826 349.838 454.998 347.646C454.171 345.455 453.067 342.935 452.101 340.571C452.036 340.373 451.915 340.197 451.753 340.066C451.591 339.934 451.395 339.852 451.187 339.829C446.41 338.88 441.599 338.104 436.753 337.551C436.639 337.532 436.523 337.544 436.417 337.587C436.31 337.629 436.217 337.701 436.149 337.793C432.735 341.493 429.544 345.394 426.595 349.475C426.543 349.556 426.508 349.647 426.493 349.742C426.479 349.837 426.484 349.934 426.509 350.027L428.785 356.947ZM466.467 341.21C467.415 339.588 468.364 337.983 469.278 336.343C471.643 332.235 473.59 327.899 475.089 323.402C475.826 321.255 476.233 319.009 476.297 316.741C476.343 315.546 476.088 314.359 475.555 313.29C475.185 312.613 474.639 312.05 473.973 311.661C473.308 311.271 472.549 311.071 471.778 311.081C470.127 311.036 468.486 311.348 466.967 311.995C464.458 312.997 462.069 314.276 459.844 315.809C455.898 318.476 452.157 321.436 448.652 324.661L447.393 325.817C447.997 326.887 448.618 327.888 449.118 328.941C450.497 331.805 451.842 334.687 453.188 337.569C453.233 337.688 453.31 337.792 453.41 337.871C453.511 337.95 453.63 338.001 453.757 338.017C456.292 338.587 458.81 339.156 461.328 339.743C463.035 340.243 464.708 340.761 466.467 341.261V341.21ZM463.569 367.732H463.88C466.743 367.732 469.605 367.732 472.503 367.732C477.395 367.677 482.255 366.927 486.937 365.506C488.701 364.992 490.327 364.09 491.697 362.866C492.378 362.268 492.848 361.467 493.037 360.581C493.227 359.695 493.126 358.772 492.749 357.948C492.255 356.765 491.507 355.704 490.559 354.842C488.671 353.082 486.546 351.595 484.247 350.424C478.973 347.717 473.445 345.538 467.743 343.919C467.519 343.919 467.398 343.919 467.277 344.091C465.074 347.788 462.685 351.37 460.12 354.825C460.031 354.975 460 355.153 460.034 355.325C460.603 357.051 461.224 358.931 461.759 360.761C462.362 363.056 462.931 365.368 463.569 367.784V367.732ZM460.431 400.208C460.586 400.208 460.862 399.983 461.121 399.811C462.299 398.905 463.137 397.628 463.5 396.187C464.225 393.695 464.533 391.101 464.414 388.508C464.184 382.397 463.3 376.329 461.776 370.407C461.776 370.096 461.534 370.044 461.241 370.044C457.016 370.001 452.799 369.673 448.618 369.061C448.526 369.056 448.434 369.071 448.348 369.104C448.262 369.136 448.183 369.186 448.117 369.251C445.427 372.408 442.547 375.398 439.495 378.206C438.908 378.776 438.891 378.776 439.305 379.518L439.598 380.053C441.565 383.6 443.748 387.023 446.134 390.303C448.009 392.94 450.172 395.359 452.584 397.516C453.854 398.687 455.343 399.596 456.964 400.19C458.078 400.624 459.313 400.63 460.431 400.208ZM444.72 325.489L444.513 325.162C442.678 321.709 440.634 318.372 438.391 315.17C436.475 312.337 434.254 309.721 431.769 307.371C430.369 305.99 428.71 304.899 426.888 304.161C426.354 303.918 425.777 303.783 425.19 303.764C424.603 303.744 424.019 303.841 423.469 304.048C422.92 304.254 422.417 304.567 421.988 304.969C421.56 305.37 421.215 305.852 420.973 306.387C420.235 307.848 419.779 309.434 419.628 311.064C419.225 314.842 419.289 318.655 419.817 322.418C420.283 326.208 420.957 329.97 421.835 333.686C421.921 334.031 422.008 334.152 422.387 334.169L435.114 334.98C435.204 334.984 435.293 334.969 435.376 334.937C435.459 334.904 435.534 334.854 435.597 334.79C436.373 333.997 437.097 333.151 437.891 332.34L444.72 325.489ZM420.231 336.257H420.076C415.547 336.168 411.018 336.399 406.521 336.947C402.719 337.297 398.995 338.241 395.484 339.743C394.262 340.267 393.167 341.05 392.276 342.038C391.716 342.62 391.341 343.356 391.2 344.152C391.058 344.948 391.157 345.768 391.483 346.507C391.913 347.543 392.546 348.482 393.345 349.268C395.284 351.146 397.493 352.722 399.899 353.945C403.905 356.037 408.089 357.769 412.402 359.121C413.747 359.57 415.092 359.967 416.42 360.398L416.61 360.139L423.732 349.527C423.785 349.37 423.785 349.201 423.732 349.044C423.387 347.939 423.008 346.835 422.663 345.731C422.128 343.902 421.594 342.055 421.094 340.209C420.869 338.966 420.593 337.62 420.283 336.257H420.231ZM417.386 363.073C415.305 366.523 413.411 370.083 411.712 373.737C410.228 376.793 409.072 379.997 408.263 383.297C407.752 385.239 407.652 387.267 407.97 389.25C408.129 390.287 408.653 391.233 409.446 391.919C410.239 392.605 411.25 392.986 412.298 392.995C413.524 393.037 414.746 392.849 415.903 392.443C418.622 391.511 421.203 390.216 423.577 388.594C428.018 385.648 432.195 382.323 436.063 378.655C436.111 378.626 436.152 378.586 436.184 378.54C436.216 378.493 436.237 378.441 436.247 378.385C436.257 378.33 436.255 378.273 436.241 378.218C436.227 378.163 436.201 378.112 436.166 378.068C435.459 376.809 434.7 375.549 434.08 374.238C432.838 371.649 431.665 369.061 430.475 366.421C430.431 366.299 430.354 366.192 430.254 366.11C430.154 366.028 430.034 365.974 429.906 365.955C427.992 365.592 426.06 365.247 424.146 364.799C421.956 364.333 419.731 363.694 417.438 363.073H417.386ZM454.55 340.312L459.172 352.391C461.224 349.372 463.363 346.421 465.242 343.177L454.55 340.312ZM425.439 346.99C427.963 343.564 430.681 340.286 433.579 337.172C429.915 336.672 426.223 336.412 422.525 336.395C423.336 340.019 424.422 343.47 425.491 346.99H425.439ZM438.046 376.791C440.767 374.314 443.325 371.662 445.703 368.854C441.509 368.506 437.344 367.878 433.235 366.973C434.596 370.368 436.222 373.651 438.098 376.791H438.046ZM450.118 367.163C453.782 367.658 457.475 367.906 461.172 367.905C460.414 364.322 459.435 360.789 458.241 357.327C455.777 360.809 453.05 364.098 450.083 367.163H450.118ZM424.525 351.995C422.353 354.928 420.421 358.017 418.455 361.209L429.061 363.849L424.525 351.995ZM445.617 327.526L438.149 335.377C442.322 335.755 446.464 336.412 450.549 337.344C449.222 333.928 447.582 330.641 445.651 327.526H445.617Z" fill="white"/>
<path d="M439.046 344.696C440.026 344.319 441.07 344.14 442.119 344.168C443.167 344.195 444.201 344.429 445.159 344.856C446.117 345.283 446.982 345.895 447.705 346.656C448.427 347.418 448.992 348.314 449.368 349.294C449.744 350.274 449.923 351.319 449.896 352.368C449.868 353.418 449.634 354.452 449.208 355.411C448.781 356.37 448.169 357.235 447.408 357.958C446.647 358.68 445.751 359.246 444.772 359.622C442.794 360.382 440.595 360.324 438.659 359.462C436.724 358.599 435.21 357.003 434.45 355.023C433.691 353.044 433.749 350.844 434.611 348.907C435.473 346.97 437.068 345.455 439.046 344.696Z" fill="white"/>
</g>
</g>
<mask id="mask1_5401_2277" style="mask-type:luminance" maskUnits="userSpaceOnUse" x="9" y="332" width="374" height="374">
<path d="M382.326 519.084C382.326 572.715 299.978 705.775 195.763 705.775C146.279 705.775 98.8221 686.106 63.8316 651.095C28.8411 616.083 9.18359 568.597 9.18359 519.084C9.18359 469.57 28.8411 422.084 63.8316 387.072C98.8221 352.061 146.279 332.392 195.763 332.392C263.987 332.392 296.409 410.457 328.951 465.159C345.541 493.062 382.326 484.261 382.326 519.084Z" fill="white"/>
</mask>
<g mask="url(#mask1_5401_2277)">
<path d="M382.326 519.084C382.326 572.715 299.978 705.775 195.763 705.775C146.279 705.775 98.822 686.106 63.8315 651.095C28.841 616.083 9.1835 568.597 9.1835 519.084C9.1835 469.57 28.841 422.084 63.8315 387.072C98.822 352.061 146.279 332.392 195.763 332.392C263.987 332.392 296.409 410.457 328.951 465.159C345.541 493.062 382.326 484.261 382.326 519.084Z" fill="url(#paint2_linear_5401_2277)"/>
<g opacity="0.04">
<path d="M-2.14685 710.504C-3.21537 708.682 -4.14913 706.785 -4.94063 704.826C-6.12073 700.518 -6.22731 695.985 -5.25105 691.626C-3.79745 683.998 -1.36283 676.591 1.99209 669.59C6.14541 660.587 10.9526 651.902 16.3749 643.602C17.6166 641.67 18.91 639.754 20.1689 637.839C20.2585 637.665 20.339 637.486 20.4104 637.304C17.927 636.338 15.4954 635.389 13.081 634.405C2.69293 630.347 -7.33369 625.417 -16.8918 619.668C-22.1674 616.542 -27.0833 612.844 -31.5506 608.642C-34.7316 605.778 -37.306 602.304 -39.1214 598.426C-40.4274 595.717 -40.7735 592.644 -40.1028 589.712C-39.4322 586.78 -37.7846 584.163 -35.4308 582.292C-31.279 578.907 -26.4424 576.463 -21.2549 575.131C-13.7119 572.988 -5.95675 571.681 1.87137 571.231C12.5356 570.515 23.237 570.549 33.8964 571.334H34.9829C34.5345 568.349 34.0689 565.45 33.6722 562.534C31.6161 549.579 31.0375 536.432 31.9477 523.346C32.342 517.067 33.7757 510.898 36.1901 505.089C37.4602 501.843 39.6251 499.025 42.433 496.961C44.4457 495.602 46.7813 494.799 49.2038 494.632C51.6262 494.466 54.0497 494.942 56.2294 496.012C61.3736 498.281 65.9941 501.589 69.8017 505.727C81.0285 517.22 89.065 530.887 96.4116 545.002C97.3601 546.831 98.2741 548.677 99.1881 550.524C99.1881 550.524 99.1881 550.524 99.3951 550.714L102.103 548.557C112.428 540.066 123.585 532.643 135.404 526.4C141.653 523.021 148.382 520.617 155.357 519.273C158.636 518.626 162.016 518.679 165.273 519.429C167.665 519.961 169.853 521.171 171.576 522.916C173.298 524.66 174.48 526.865 174.982 529.265C176.03 534.04 175.971 538.993 174.81 543.742C172.79 552.78 169.59 561.512 165.29 569.712C160.824 578.664 155.771 587.311 150.166 595.596C149.942 595.907 149.787 596.252 149.58 596.597C152.943 597.978 156.236 599.306 159.513 600.687C168.484 604.42 177.165 608.815 185.485 613.836C191.614 617.458 197.278 621.816 202.351 626.812C205.306 629.651 207.653 633.063 209.249 636.838C210.158 638.785 210.552 640.932 210.392 643.075C210.231 645.217 209.523 647.283 208.335 649.072C206.296 651.934 203.575 654.241 200.42 655.785C194.531 658.731 188.207 660.712 181.691 661.652C171.107 663.365 160.38 664.029 149.666 663.637C145.217 663.516 140.784 663.222 136.335 663.015H135.438C135.887 666.208 136.37 669.348 136.766 672.506C138.539 684.947 138.933 697.545 137.939 710.072C137.508 716.855 135.867 723.506 133.093 729.709C131.683 733.008 129.339 735.821 126.35 737.802C124.749 738.798 122.948 739.427 121.076 739.644C119.203 739.862 117.306 739.663 115.52 739.062C112.205 738.025 109.12 736.361 106.431 734.161C98.6535 728.139 92.8073 720.357 87.3577 712.367C81.3062 703.255 75.9119 693.723 71.2158 683.843L70.6295 682.722L66.6802 685.914C55.1602 695.094 43.0883 703.653 29.4815 709.727C24.0625 712.389 18.2311 714.11 12.236 714.818C8.46572 715.364 4.61897 714.719 1.23328 712.971L-0.0428848 712.281L-2.14685 710.504ZM60.7305 594.268C57.2814 598.409 53.8323 602.792 50.1245 607.141C49.5839 607.716 49.2076 608.427 49.0347 609.198C48.8618 609.969 48.8987 610.772 49.1415 611.524C52.0387 622.481 55.7121 633.214 59.5923 643.878C59.6746 644.07 59.7973 644.242 59.9521 644.382C60.1069 644.522 60.29 644.627 60.4891 644.689C70.2156 647.295 79.9938 649.711 89.9273 651.471C91.8071 651.799 93.7213 652.058 95.6356 652.282C96.0286 652.311 96.4176 652.187 96.722 651.937C100.637 648.003 104.638 644.12 108.397 640.03C112.484 635.578 116.347 630.919 120.314 626.346C120.667 625.995 120.913 625.551 121.023 625.065C121.133 624.579 121.102 624.072 120.935 623.603C117.831 612.438 114.244 601.429 110.398 590.506C110.318 590.248 110.167 590.017 109.963 589.841C109.758 589.664 109.509 589.547 109.242 589.505C97.7522 586.162 86.066 583.534 74.251 581.636C74.0243 581.619 73.7963 581.646 73.5802 581.718C73.3642 581.789 73.1643 581.902 72.9921 582.05C68.9566 586.019 64.9729 590.04 60.7305 594.268ZM134.3 657.545C138.732 657.804 143.164 658.132 147.614 658.322C158.844 658.973 170.111 658.482 181.243 656.855C186.587 656.143 191.792 654.618 196.677 652.334C199.263 651.188 201.517 649.408 203.231 647.157C204.268 645.654 204.88 643.898 205.001 642.075C205.123 640.253 204.749 638.431 203.92 636.803C202.254 633.239 199.836 630.078 196.833 627.537C192.036 623.279 186.785 619.564 181.174 616.459C171.292 610.926 161.014 606.133 150.425 602.119L146.665 600.687C145.027 603.103 143.561 605.484 141.854 607.693C137.266 613.681 132.576 619.599 127.885 625.518C127.678 625.748 127.537 626.03 127.476 626.334C127.415 626.637 127.437 626.952 127.54 627.244C129.023 633.232 130.523 639.202 131.886 645.224C132.765 649.142 133.472 653.266 134.3 657.545ZM74.9409 679.633C74.9409 679.736 75.1133 680.03 75.2513 680.288C78.3382 686.363 81.27 692.523 84.5639 698.493C90.186 708.657 96.3771 718.476 104.672 726.759C107.626 729.965 111.271 732.455 115.33 734.041C117.323 734.855 119.526 735.005 121.61 734.467C123.695 733.929 125.551 732.733 126.902 731.055C128.871 728.733 130.318 726.014 131.144 723.083C132.867 717.197 133.749 711.097 133.766 704.964C133.903 690.874 132.644 676.805 130.006 662.964C129.92 662.429 129.747 662.204 129.161 662.17C118.969 661.435 108.821 660.179 98.757 658.408C98.5472 658.385 98.335 658.406 98.1333 658.468C97.9317 658.531 97.7449 658.633 97.5843 658.77C94.3421 661.894 91.2034 665.138 87.875 668.192C83.6844 672.023 79.304 675.733 74.9409 679.633ZM2.85437 707.622C3.35935 707.999 3.88314 708.35 4.42372 708.675C7.59589 710.23 11.2034 710.656 14.6503 709.882C20.7058 708.764 26.5336 706.647 31.8959 703.618C44.8301 696.854 56.3329 688.088 67.4908 678.735C68.0771 678.235 67.9909 677.838 67.6977 677.217C63.2779 668.194 59.4864 658.877 56.3501 649.331C56.2677 649.123 56.1397 648.936 55.9755 648.784C55.8114 648.631 55.6153 648.518 55.4016 648.451C45.8523 646.155 36.453 643.273 27.2569 639.823C25.4288 639.15 25.4288 639.15 24.2734 640.807C23.9974 641.204 23.7215 641.601 23.4628 642.015C18.0168 649.959 13.0804 658.241 8.68338 666.812C5.06706 673.591 2.24316 680.765 0.267529 688.192C-0.873886 692.139 -1.23127 696.272 -0.784447 700.357C-0.472023 703.134 0.817856 705.709 2.85437 707.622ZM144.613 594.63L145.113 593.854C150.463 586.265 155.358 578.365 159.772 570.196C163.753 563.09 166.94 555.567 169.274 547.763C170.725 543.315 171.265 538.62 170.861 533.958C170.102 527.625 166.204 523.984 159.858 523.76C155.966 523.761 152.107 524.481 148.476 525.882C140.044 529.059 132.033 533.261 124.625 538.393C117.081 543.43 109.815 548.873 102.861 554.7C102.206 555.235 102.034 555.563 102.396 556.425C106.38 565.709 110.277 575.027 114.244 584.328C114.439 584.701 114.764 584.99 115.158 585.139C117.693 585.916 120.331 586.589 122.797 587.4C130.04 589.798 137.266 592.214 144.613 594.63ZM95.6873 554.096C95.6358 553.989 95.5898 553.879 95.5493 553.768C90.8818 544.063 85.5578 534.689 79.6144 525.71C74.5442 518.186 69.1291 510.921 61.9032 505.244C59.493 503.198 56.6693 501.697 53.6253 500.844C51.7859 500.294 49.8258 500.295 47.987 500.847C46.1482 501.399 44.5112 502.478 43.278 503.95C41.5411 505.966 40.2326 508.314 39.4322 510.852C37.4982 516.965 36.5039 523.336 36.4832 529.748C36.2608 540.508 36.9995 551.267 38.6907 561.895C39.1735 565.209 39.7427 568.522 40.26 571.818L41.0016 571.938C51.0385 573.215 61.0697 574.481 71.0951 575.735C71.4953 575.756 71.8891 575.627 72.1988 575.372C74.1821 573.474 76.0963 571.473 78.1141 569.574C81.4252 566.468 84.7364 563.38 88.1337 560.36C90.5654 558.203 93.1005 556.149 95.6873 554.096ZM35.7589 576.632H35.552C26.0231 575.885 16.4608 575.654 6.90707 575.942C-1.14927 576.072 -9.16835 577.067 -17.0125 578.91C-21.6756 579.888 -26.0818 581.834 -29.9467 584.622C-31.9799 586.066 -33.4342 588.186 -34.0502 590.604C-34.6661 593.022 -34.4036 595.58 -33.3096 597.822C-32.0734 600.457 -30.3735 602.848 -28.2911 604.88C-23.4013 609.661 -17.8977 613.769 -11.9251 617.097C-0.953259 623.352 10.5271 628.669 22.3936 632.99C22.506 633.064 22.6333 633.112 22.7663 633.131C22.8994 633.149 23.035 633.139 23.1634 633.099C23.2919 633.06 23.41 632.992 23.5095 632.902C23.6089 632.811 23.6872 632.7 23.7388 632.576C25.6703 629.711 27.5328 626.778 29.654 624.051C33.8274 618.668 38.1388 613.387 42.4157 608.072C42.6256 607.844 42.77 607.563 42.8337 607.259C42.8974 606.956 42.8781 606.64 42.7779 606.347C41.5189 601.86 40.1738 597.391 39.1046 592.87C37.9146 587.555 36.8971 582.154 35.7589 576.632ZM123.711 631.316L103.12 653.939C111.743 655.095 120.262 656.475 129.144 657.01L123.711 631.316ZM78.528 576.598C88.4442 578.927 98.4293 580.049 108.052 583.5C105.211 575.184 101.818 567.067 97.8947 559.204C90.962 564.57 84.7881 570.593 78.459 576.598H78.528ZM28.6537 635.112C36.8085 638.286 45.1687 640.904 53.6771 642.947C49.9416 633.67 46.8361 624.152 44.3817 614.457C38.5947 620.91 33.3351 627.817 28.6537 635.112ZM61.955 650.47C64.7982 658.783 68.1975 666.894 72.1298 674.749C78.9515 669.342 85.4097 663.491 91.4621 657.235C81.4637 655.761 71.5972 653.499 61.955 650.47ZM66.8527 579.928C58.2299 578.444 49.6071 577.667 40.8464 576.856C42.7606 585.484 44.6404 593.75 46.5547 602.223L66.8527 579.928ZM141.25 598.651L116.623 591.179C120.26 600.454 123.279 609.96 125.66 619.634C130.144 614.923 139.526 602.326 141.25 598.651Z" fill="white"/>
<path d="M97.7566 602.947C101.477 606.336 103.7 611.065 103.936 616.094C104.173 621.123 102.402 626.04 99.0155 629.763C95.6286 633.486 90.9024 635.71 85.8765 635.946C80.8506 636.183 75.9367 634.412 72.2159 631.023C70.3736 629.345 68.8796 627.32 67.8192 625.064C66.7589 622.808 66.153 620.366 66.0361 617.876C65.9192 615.386 66.2936 612.897 67.1379 610.552C67.9822 608.206 69.28 606.05 70.957 604.207C72.634 602.363 74.6575 600.869 76.9119 599.808C79.1663 598.747 81.6075 598.14 84.0961 598.023C86.5846 597.906 89.0719 598.281 91.4158 599.126C93.7596 599.971 95.9143 601.269 97.7566 602.947Z" fill="white"/>
</g>
<g opacity="0.05">
<path d="M106.431 421.967L116.779 408.922C115.794 407.813 115.096 406.481 114.743 405.04C114.39 403.6 114.394 402.095 114.754 400.657C115.114 399.218 115.82 397.889 116.81 396.786C117.8 395.682 119.044 394.837 120.435 394.323C120.443 394.191 120.443 394.059 120.435 393.927C120.073 390.303 119.693 386.696 119.331 383.073C119.331 382.676 119.176 382.52 118.779 382.451C116.603 382.021 114.662 380.802 113.329 379.027C111.995 377.253 111.364 375.049 111.555 372.837C111.747 370.626 112.748 368.563 114.366 367.044C115.984 365.526 118.106 364.658 120.324 364.609C122.542 364.56 124.7 365.332 126.384 366.777C128.068 368.222 129.16 370.238 129.449 372.439C129.739 374.64 129.206 376.87 127.953 378.702C126.7 380.534 124.815 381.838 122.659 382.365C121.832 382.572 121.832 382.572 121.918 383.435C122.246 386.696 122.59 389.975 122.918 393.236C122.932 393.391 122.932 393.547 122.918 393.702C123.867 393.792 124.811 393.93 125.746 394.116C127.924 394.632 129.817 395.975 131.024 397.861C131.076 397.988 131.168 398.094 131.287 398.162C131.405 398.231 131.543 398.258 131.679 398.241L146.545 396.67H146.821C146.848 395.382 146.958 394.097 147.148 392.822C147.551 390.36 148.686 388.076 150.406 386.269C152.126 384.462 154.35 383.215 156.788 382.693C159.783 381.944 162.948 382.303 165.699 383.705C168.45 385.106 170.602 387.456 171.758 390.32C172.374 391.906 172.671 393.598 172.634 395.3C172.596 397.001 172.224 398.679 171.539 400.236C170.853 401.794 169.868 403.201 168.639 404.377C167.41 405.554 165.962 406.476 164.377 407.093C162.791 407.709 161.1 408.007 159.4 407.969C157.699 407.932 156.023 407.56 154.466 406.874C152.91 406.188 151.504 405.202 150.328 403.972C149.152 402.743 148.23 401.294 147.614 399.707C147.598 399.621 147.564 399.539 147.515 399.466C147.465 399.394 147.401 399.333 147.326 399.287C147.251 399.242 147.167 399.212 147.08 399.201C146.993 399.191 146.904 399.198 146.821 399.224L136.301 400.328L132.731 400.674H132.179C132.5 402.025 132.512 403.432 132.213 404.788C131.915 406.145 131.314 407.416 130.454 408.508L139.698 415.876C140.25 415.479 140.802 415.031 141.423 414.651C143.174 413.572 145.221 413.072 147.272 413.224C149.324 413.376 151.275 414.171 152.848 415.497C154.422 416.822 155.537 418.611 156.037 420.607C156.536 422.604 156.393 424.707 155.629 426.618C154.864 428.529 153.517 430.149 151.779 431.25C150.041 432.35 148 432.874 145.947 432.747C143.894 432.62 141.933 431.848 140.344 430.542C138.754 429.235 137.617 427.461 137.094 425.47C136.446 423.054 136.761 420.48 137.974 418.292C138.077 418.102 138.215 417.912 137.974 417.757L137.853 417.671L128.626 410.285C127.202 411.273 125.525 411.834 123.793 411.901C122.06 411.968 120.345 411.539 118.848 410.665L108.501 423.451C110.024 424.701 111.237 426.285 112.048 428.081C112.859 429.877 113.244 431.836 113.174 433.805C113.136 436.948 111.902 439.959 109.725 442.226C107.573 444.511 104.661 445.932 101.536 446.224C98.4117 446.515 95.2879 445.657 92.7501 443.81C90.2124 441.962 88.4347 439.252 87.75 436.188C87.0653 433.123 87.5206 429.914 89.0306 427.161C90.6807 424.195 93.4239 421.992 96.6748 421.022C99.9258 420.051 103.427 420.391 106.431 421.967ZM158.806 384.867C156.773 385.086 154.85 385.904 153.28 387.216C151.711 388.528 150.565 390.276 149.988 392.239C149.411 394.203 149.428 396.293 150.037 398.246C150.647 400.2 151.821 401.929 153.412 403.215C155.003 404.501 156.939 405.286 158.976 405.472C161.013 405.658 163.059 405.235 164.856 404.258C166.653 403.281 168.12 401.792 169.072 399.981C170.024 398.17 170.419 396.117 170.206 394.082C170.064 392.727 169.656 391.414 169.006 390.217C168.356 389.02 167.476 387.963 166.417 387.107C165.358 386.251 164.141 385.613 162.835 385.228C161.529 384.844 160.16 384.721 158.806 384.867ZM110.743 432.373C110.525 430.341 109.712 428.418 108.404 426.848C107.097 425.278 105.354 424.129 103.396 423.548C101.437 422.967 99.3511 422.979 97.3995 423.583C95.4479 424.186 93.7185 425.354 92.4291 426.939C91.1397 428.524 90.348 430.456 90.1538 432.49C89.9596 434.525 90.3715 436.572 91.3377 438.372C92.3039 440.173 93.7811 441.647 95.5833 442.609C97.3854 443.572 99.4318 443.978 101.465 443.779C104.199 443.479 106.705 442.114 108.441 439.979C110.177 437.845 111.004 435.112 110.743 432.373ZM147.39 430.181C148.816 430.037 150.168 429.472 151.273 428.558C152.378 427.645 153.188 426.423 153.599 425.049C154.01 423.675 154.005 422.209 153.583 420.838C153.161 419.467 152.342 418.252 151.23 417.347C150.117 416.442 148.761 415.888 147.334 415.755C145.906 415.621 144.471 415.915 143.211 416.598C141.95 417.281 140.92 418.323 140.252 419.592C139.584 420.862 139.307 422.301 139.457 423.727C139.657 425.634 140.604 427.384 142.091 428.594C143.578 429.804 145.483 430.374 147.39 430.181ZM122.849 396.411C121.575 396.552 120.372 397.066 119.39 397.89C118.408 398.715 117.693 399.811 117.334 401.042C116.974 402.273 116.988 403.583 117.372 404.806C117.756 406.029 118.494 407.111 119.493 407.915C120.491 408.719 121.705 409.209 122.981 409.323C124.258 409.437 125.539 409.17 126.664 408.556C127.789 407.942 128.707 407.008 129.302 405.872C129.896 404.737 130.142 403.45 130.006 402.175C129.815 400.463 128.955 398.897 127.615 397.817C126.274 396.738 124.561 396.232 122.849 396.411ZM126.971 372.892C126.837 371.611 126.326 370.398 125.503 369.408C124.68 368.418 123.581 367.695 122.347 367.33C121.113 366.965 119.798 366.975 118.569 367.358C117.34 367.742 116.253 368.481 115.444 369.484C114.636 370.486 114.144 371.706 114.029 372.989C113.914 374.272 114.183 375.56 114.8 376.69C115.418 377.82 116.357 378.741 117.498 379.336C118.639 379.932 119.931 380.175 121.211 380.035C122.92 379.849 124.485 378.992 125.565 377.653C126.644 376.314 127.15 374.602 126.971 372.892Z" fill="white"/>
</g>
</g>
<mask id="mask2_5401_2277" style="mask-type:luminance" maskUnits="userSpaceOnUse" x="265" y="434" width="279" height="279">
<path d="M543.848 573.698C543.848 610.576 529.207 645.944 503.146 672.02C477.085 698.097 441.739 712.746 404.883 712.746C323.829 712.746 271.334 650.504 265.919 573.698C260.504 496.892 328.141 434.65 404.883 434.65C441.739 434.65 477.085 449.3 503.146 475.376C529.207 501.453 543.848 536.82 543.848 573.698Z" fill="white"/>
</mask>
<g mask="url(#mask2_5401_2277)">
<path d="M543.848 573.698C543.848 610.576 529.207 645.944 503.146 672.02C477.085 698.097 441.739 712.746 404.883 712.746C323.829 712.746 271.334 650.504 265.919 573.698C260.504 496.892 328.141 434.65 404.883 434.65C441.739 434.65 477.085 449.3 503.146 475.376C529.207 501.453 543.848 536.82 543.848 573.698Z" fill="url(#paint3_linear_5401_2277)"/>
<g opacity="0.04">
<path d="M522.636 485.4L528.068 486.574C526.12 495.495 524.36 504.157 522.274 512.716C521.908 513.783 521.9 514.94 522.252 516.012C522.604 517.083 523.296 518.01 524.223 518.652C530.517 524.191 536.553 530.041 542.865 535.563C543.667 536.175 544.254 537.027 544.539 537.995C544.824 538.963 544.794 539.997 544.452 540.947C542.486 549.351 540.606 557.754 538.95 566.227C538.86 567.011 538.937 567.805 539.174 568.557C539.412 569.309 539.806 570.003 540.33 570.593C546.866 576.857 553.626 582.913 560.576 589.298L557.006 593.405C555.006 591.679 553.126 589.954 551.281 588.228C547.28 584.956 543.496 581.429 539.95 577.668C536.174 573.198 532.466 573.008 527.378 575.01C520.635 577.65 513.582 579.428 506.684 581.74C505.904 582.07 505.041 582.148 504.215 581.962C503.39 581.776 502.643 581.337 502.079 580.705C494.75 573.889 487.282 567.245 480.022 560.36C479.546 559.798 479.195 559.141 478.993 558.433C478.79 557.725 478.742 556.982 478.849 556.253C480.838 546.452 482.988 536.673 485.299 526.918C485.533 526.221 485.912 525.583 486.412 525.044C486.911 524.506 487.52 524.08 488.197 523.795C496.474 520.988 504.804 518.336 513.185 515.84C514.171 515.628 515.064 515.107 515.734 514.353C516.403 513.599 516.816 512.651 516.91 511.646C518.635 502.984 520.653 494.252 522.636 485.4ZM519.066 572.008C522.912 570.783 526.792 569.713 530.552 568.263C531.18 567.991 531.745 567.591 532.211 567.089C532.677 566.587 533.034 565.994 533.259 565.347C535.133 557.639 536.858 549.891 538.433 542.103C538.526 541.379 538.465 540.643 538.254 539.944C538.043 539.246 537.687 538.599 537.208 538.048C531.46 532.561 525.596 527.211 519.618 522C519.024 521.567 518.345 521.263 517.626 521.109C516.907 520.954 516.164 520.952 515.445 521.103C507.948 523.277 500.475 525.641 493.025 528.195C492.353 528.486 491.75 528.916 491.257 529.458C490.763 529.999 490.39 530.639 490.162 531.335C488.265 538.928 486.713 546.59 484.989 554.2C484.717 555.061 484.726 555.987 485.015 556.843C485.303 557.699 485.855 558.441 486.593 558.962C491.766 563.535 496.94 568.125 501.838 572.957C504.407 575.493 506.753 576.529 510.271 574.889C513.136 573.735 516.074 572.772 519.066 572.008Z" fill="white"/>
<path d="M454.309 662.066L448.963 660.91C450.48 653.904 451.481 646.829 453.636 640.203C455.568 634.181 454.274 630.333 449.291 626.519C443.67 621.958 438.321 617.072 433.269 611.886C432.729 611.314 432.318 610.634 432.062 609.89C431.806 609.146 431.712 608.355 431.786 607.572C433.735 597.753 435.908 587.987 438.236 578.237C438.462 577.537 438.834 576.894 439.327 576.35C439.821 575.805 440.425 575.372 441.099 575.079C450.687 571.852 460.328 568.815 470.02 565.899C470.689 565.766 471.379 565.776 472.045 565.928C472.71 566.079 473.337 566.369 473.883 566.779C481.448 573.486 488.921 580.308 496.302 587.245C496.778 587.806 497.129 588.463 497.331 589.171C497.534 589.88 497.582 590.623 497.475 591.351C495.497 601.153 493.341 610.931 491.008 620.687C490.78 621.383 490.407 622.023 489.913 622.564C489.42 623.106 488.817 623.536 488.145 623.827C479.988 626.605 471.744 629.177 463.501 631.696C462.678 631.865 461.93 632.29 461.364 632.91C460.797 633.529 460.44 634.312 460.345 635.147C458.724 643.033 456.896 650.867 455.171 658.719C454.913 659.771 454.602 660.858 454.309 662.066ZM471.71 623.223C475.538 622.015 479.436 620.945 483.178 619.496C483.856 619.22 484.471 618.808 484.984 618.286C485.497 617.764 485.898 617.142 486.162 616.459C488.093 608.642 489.783 600.79 491.335 592.905C491.415 592.288 491.362 591.661 491.181 591.066C490.999 590.471 490.693 589.921 490.283 589.453C484.471 583.914 478.539 578.479 472.486 573.216C471.895 572.775 471.218 572.465 470.498 572.307C469.778 572.149 469.033 572.147 468.312 572.301C460.707 574.51 453.154 576.926 445.652 579.479C445.031 579.757 444.476 580.164 444.024 580.672C443.572 581.181 443.233 581.78 443.03 582.43C441.133 590.23 439.409 598.076 437.857 605.967C437.769 606.598 437.818 607.24 437.999 607.85C438.181 608.46 438.491 609.025 438.909 609.505C444.818 615.096 450.837 620.583 456.965 625.967C457.473 626.339 458.053 626.6 458.667 626.734C459.282 626.868 459.918 626.871 460.535 626.743C464.294 625.708 467.985 624.397 471.71 623.223Z" fill="white"/>
<path d="M394.57 491.837L398.364 487.765C404.797 493.632 411.264 499.309 417.421 505.297C418.31 506.377 419.532 507.132 420.895 507.445C422.259 507.757 423.687 507.608 424.957 507.022C432.752 504.261 440.72 502.001 448.584 499.395C449.363 499.065 450.226 498.987 451.052 499.173C451.878 499.359 452.625 499.798 453.188 500.43C460.5 507.247 467.95 513.925 475.211 520.793C475.682 521.291 476.039 521.885 476.26 522.534C476.48 523.183 476.557 523.872 476.487 524.554C474.452 534.459 472.267 544.335 469.934 554.183C469.71 554.881 469.34 555.523 468.85 556.067C468.359 556.612 467.759 557.046 467.088 557.341C457.603 560.516 448.032 563.415 438.529 566.538C437.749 566.863 436.887 566.934 436.064 566.742C435.24 566.55 434.498 566.105 433.942 565.468C426.63 558.566 419.163 552.008 411.919 545.123C411.44 544.563 411.086 543.907 410.881 543.199C410.676 542.49 410.624 541.746 410.729 541.016C412.454 532.389 414.541 523.761 416.248 515.046C416.336 514.261 416.257 513.466 416.016 512.714C415.775 511.962 415.378 511.269 414.851 510.681C408.315 504.382 401.555 498.256 394.57 491.837ZM450.998 556.357V556.53C454.844 555.304 458.724 554.217 462.483 552.802C463.072 552.555 463.603 552.188 464.042 551.725C464.482 551.261 464.82 550.712 465.036 550.11C466.95 542.173 468.692 534.2 470.313 526.194C470.38 525.617 470.323 525.033 470.148 524.48C469.973 523.926 469.682 523.417 469.296 522.984C463.38 517.376 457.379 511.819 451.257 506.436C450.69 506.042 450.047 505.774 449.369 505.649C448.691 505.524 447.994 505.545 447.325 505.711C439.702 507.943 432.137 510.341 424.629 512.907C424 513.176 423.437 513.578 422.975 514.084C422.514 514.59 422.167 515.189 421.956 515.84C420.059 523.663 418.335 531.52 416.783 539.412C416.73 540.089 416.818 540.769 417.041 541.41C417.264 542.052 417.616 542.64 418.076 543.139C420.887 546.021 423.94 548.644 426.94 551.335C430.389 554.459 433.614 559.308 437.598 560.136C441.582 560.964 446.514 557.875 450.998 556.357Z" fill="white"/>
<path d="M535.535 543.966L531.776 548.125L510.34 528.539L514.013 524.312L535.535 543.966Z" fill="white"/>
<path d="M465.863 618.823L462.104 622.965L441.461 604.173L445.22 600.032C452.188 606.313 458.896 612.456 465.863 618.823Z" fill="white"/>
<path d="M426.078 523.881L424.526 518.981L450.584 510.732L452.136 515.633L426.078 523.881Z" fill="white"/>
</g>
</g>
<path opacity="0.74" d="M131.748 332.927C130.581 311.447 135.348 290.061 145.528 271.114C155.707 252.166 170.905 236.391 189.455 225.517C208.004 214.643 229.188 209.091 250.683 209.47C272.179 209.849 293.154 216.144 311.309 227.665" stroke="url(#paint4_linear_5401_2277)" stroke-width="5" stroke-linejoin="round"/>
<path d="M436.477 312.081C456.863 326.531 472.392 346.827 481.013 370.29C489.633 393.753 490.942 419.28 484.765 443.502" stroke="url(#paint5_linear_5401_2277)" stroke-width="5" stroke-miterlimit="10"/>
<path d="M500.993 463.847C517.86 478.577 531.123 496.985 539.761 517.651" stroke="url(#paint6_linear_5401_2277)" stroke-width="5" stroke-miterlimit="10"/>
<path d="M56.8849 653.386C38.8787 634.742 24.8055 612.664 15.5034 588.465C6.20121 564.266 1.86019 538.442 2.73875 512.53C3.61731 486.618 9.69749 461.147 20.6173 437.635C31.5371 414.123 47.0733 393.049 66.301 375.669" stroke="url(#paint7_linear_5401_2277)" stroke-width="5" stroke-miterlimit="10"/>
<defs>
<linearGradient id="paint0_linear_5401_2277" x1="215.746" y1="212.572" x2="250.812" y2="334.181" gradientUnits="userSpaceOnUse">
<stop stop-color="#C888BA"/>
<stop offset="0.01" stop-color="#C787B9"/>
<stop offset="0.23" stop-color="#9D6CA8"/>
<stop offset="0.44" stop-color="#7C579B"/>
<stop offset="0.64" stop-color="#654791"/>
<stop offset="0.84" stop-color="#573E8B"/>
<stop offset="1" stop-color="#523B89"/>
</linearGradient>
<linearGradient id="paint1_linear_5401_2277" x1="387.637" y1="354.755" x2="335.019" y2="480.149" gradientUnits="userSpaceOnUse">
<stop stop-color="#554789"/>
<stop offset="0.56" stop-color="#39608B"/>
<stop offset="1" stop-color="#21778D"/>
</linearGradient>
<linearGradient id="paint2_linear_5401_2277" x1="86.8231" y1="385.574" x2="355.675" y2="773.475" gradientUnits="userSpaceOnUse">
<stop stop-color="#7166AA"/>
<stop offset="0.06" stop-color="#615798"/>
<stop offset="0.18" stop-color="#49417D"/>
<stop offset="0.28" stop-color="#3A336C"/>
<stop offset="0.36" stop-color="#352E66"/>
<stop offset="0.65" stop-color="#233058"/>
<stop offset="1" stop-color="#113349"/>
</linearGradient>
<linearGradient id="paint3_linear_5401_2277" x1="488.99" y1="444.313" x2="334.392" y2="678.632" gradientUnits="userSpaceOnUse">
<stop stop-color="#5B4382"/>
<stop offset="0.46" stop-color="#492778"/>
<stop offset="0.57" stop-color="#3D2266"/>
<stop offset="0.85" stop-color="#24163D"/>
<stop offset="0.99" stop-color="#1A122E"/>
</linearGradient>
<linearGradient id="paint4_linear_5401_2277" x1="201.851" y1="213.705" x2="228.474" y2="306.051" gradientUnits="userSpaceOnUse">
<stop stop-color="#C888BA"/>
<stop offset="0.01" stop-color="#C787B9"/>
<stop offset="0.23" stop-color="#9D6CA8"/>
<stop offset="0.44" stop-color="#7C579B"/>
<stop offset="0.64" stop-color="#654791"/>
<stop offset="0.84" stop-color="#573E8B"/>
<stop offset="1" stop-color="#523B89"/>
</linearGradient>
<linearGradient id="paint5_linear_5401_2277" x1="483.557" y1="327.284" x2="442.005" y2="426.263" gradientUnits="userSpaceOnUse">
<stop stop-color="#554789"/>
<stop offset="0.56" stop-color="#39608B"/>
<stop offset="1" stop-color="#21778D"/>
</linearGradient>
<linearGradient id="paint6_linear_5401_2277" x1="529.948" y1="477.824" x2="512.619" y2="504.096" gradientUnits="userSpaceOnUse">
<stop stop-color="#5B4382"/>
<stop offset="0.46" stop-color="#492778"/>
<stop offset="0.57" stop-color="#3D2266"/>
<stop offset="0.85" stop-color="#24163D"/>
<stop offset="0.99" stop-color="#1A122E"/>
</linearGradient>
<linearGradient id="paint7_linear_5401_2277" x1="-6.87198" y1="421.191" x2="122.937" y2="608.465" gradientUnits="userSpaceOnUse">
<stop stop-color="#7166AA"/>
<stop offset="0.06" stop-color="#615798"/>
<stop offset="0.18" stop-color="#49417D"/>
<stop offset="0.28" stop-color="#3A336C"/>
<stop offset="0.36" stop-color="#352E66"/>
<stop offset="0.65" stop-color="#233058"/>
<stop offset="1" stop-color="#113349"/>
</linearGradient>
</defs>
</svg>
