<svg width="205" height="57" viewBox="0 0 205 57" fill="none" xmlns="http://www.w3.org/2000/svg">
<path d="M137.578 32.9895V20.4455C137.578 18.7417 137.901 18.3891 139.545 18.3891H157.924C159.656 18.3891 159.832 18.5654 159.861 20.328C159.861 22.9425 159.862 22.9426 157.307 22.9426H144.536C143.127 22.9426 142.833 23.2363 142.833 24.7051V28.4654C142.833 29.7286 143.185 30.0518 144.419 30.0812C146.973 30.0812 149.527 30.0812 152.081 30.0812C154.129 30.0848 156.145 30.589 157.953 31.55C159.017 32.1265 159.911 32.9729 160.545 34.0042C161.179 35.0354 161.53 36.2153 161.564 37.4254C161.786 38.6008 161.75 39.8102 161.458 40.9701C161.166 42.13 160.626 43.2126 159.875 44.143C159.124 45.0734 158.18 45.8294 157.108 46.3586C156.036 46.8878 154.862 47.1776 153.667 47.2079C149.899 47.5366 146.115 47.6445 142.334 47.5311H139.398C137.842 47.5311 137.578 47.2374 137.548 45.6804V32.9602L137.578 32.9895ZM147.619 34.1939H144.213C144.029 34.1708 143.842 34.1897 143.666 34.249C143.49 34.3083 143.33 34.4065 143.197 34.5364C143.064 34.6663 142.963 34.8245 142.9 34.9992C142.837 35.1739 142.814 35.3605 142.833 35.5453V42.0964C142.82 42.2746 142.846 42.4535 142.907 42.6212C142.969 42.7889 143.065 42.9416 143.19 43.0694C143.315 43.1971 143.465 43.2969 143.632 43.3621C143.798 43.4273 143.976 43.4564 144.154 43.4477C146.297 43.4477 148.441 43.4477 150.584 43.4477C151.684 43.3528 152.768 43.126 153.813 42.7721C154.623 42.4716 155.32 41.9305 155.813 41.2216C156.306 40.5126 156.57 39.6697 156.57 38.8062C156.57 37.9426 156.306 37.0997 155.813 36.3908C155.32 35.6818 154.623 35.1407 153.813 34.8402C151.792 34.316 149.704 34.0982 147.619 34.1939Z" fill="black"/>
<path d="M118.523 32.9888V45.6209C118.523 47.4717 118.523 47.5304 116.585 47.5304H114.589C113.796 47.5304 113.444 47.1485 113.444 46.3554V25.2333C113.444 23.2944 113.179 23.03 111.33 23.03H103.931C102.551 23.03 102.14 23.5294 102.052 24.9689C101.847 29.1698 101.729 33.3707 101.318 37.5423C101.192 40.1794 100.437 42.7479 99.1163 45.0334C98.3567 46.2157 97.2293 47.1152 95.9082 47.593C94.5871 48.0708 93.1455 48.1004 91.8059 47.6773C91.5724 47.5554 91.371 47.3802 91.2179 47.1658C91.0649 46.9514 90.9646 46.704 90.9251 46.4435C90.8764 45.4567 90.9653 44.468 91.1894 43.5058C91.2418 43.3579 91.3315 43.2262 91.4498 43.1232C91.5681 43.0203 91.711 42.9496 91.8646 42.9182C92.8773 42.9923 93.8792 42.6688 94.6575 42.0161C95.4358 41.3635 95.9294 40.4331 96.0336 39.4223C96.5263 37.1075 96.8598 34.7617 97.0318 32.4013C97.2961 28.4648 97.3548 24.4989 97.4722 20.6505C97.4722 18.9466 98.0301 18.4178 99.7036 18.4178H116.732C118.288 18.4178 118.494 18.6528 118.523 20.2097V32.9888Z" fill="black"/>
<path d="M190.219 40.8041H184.347C183.901 40.7596 183.454 40.8736 183.083 41.126C182.713 41.3785 182.443 41.7533 182.321 42.1848C181.793 43.6537 181.118 45.1225 180.53 46.5326C180.42 46.8315 180.22 47.0883 179.956 47.2674C179.693 47.4465 179.381 47.5389 179.062 47.5314H176.303C175.246 47.5314 174.923 47.0026 175.304 46.0038C176.009 44.2412 176.802 42.5373 177.565 40.8041L184.641 24.7643C185.404 23.031 186.197 21.3271 186.931 19.5939C187.074 19.2186 187.334 18.8991 187.672 18.6823C188.01 18.4655 188.409 18.3629 188.81 18.3894H191.364C191.76 18.3684 192.153 18.4776 192.481 18.7003C192.81 18.9231 193.057 19.2472 193.184 19.6233C195.504 24.823 197.794 30.0521 200.113 35.2519L204.722 45.6807C205.31 47.032 204.987 47.5314 203.548 47.5314C199.262 47.5314 200.23 47.8546 198.586 44.3C198.263 43.5655 197.94 42.8311 197.676 42.0673C197.564 41.6853 197.326 41.3525 197.001 41.1232C196.676 40.8938 196.283 40.7813 195.885 40.8041H190.219ZM190.072 36.5444H193.771C194.828 36.5444 195.239 35.9862 194.828 34.9874C193.595 32.0497 192.362 29.112 191.1 26.1743C191.007 25.97 190.869 25.7897 190.696 25.6472C190.523 25.5046 190.32 25.4035 190.102 25.3517C189.837 25.3517 189.368 25.7925 189.221 26.145C187.929 29.0827 186.725 32.0204 185.521 34.9581C185.091 36.0157 185.443 36.5444 186.578 36.5444H190.072Z" fill="black"/>
<path d="M0 33.0483V20.2105C0 18.6829 0.264224 18.4185 1.73219 18.3891H3.72861C4.84427 18.3891 5.22597 18.8297 5.22597 20.0342C5.22597 22.9719 5.22597 25.9096 5.22597 28.8473C5.22597 30.4337 5.46083 30.6687 7.04623 30.6687C11.4208 30.6687 10.3051 31.08 12.742 27.5254C14.5622 24.9108 16.3237 22.2375 18.0853 19.5936C18.3071 19.2057 18.6348 18.8891 19.03 18.681C19.4252 18.4729 19.8715 18.3818 20.3166 18.4185C20.9625 18.4185 21.6379 18.4185 22.2838 18.4185C23.6049 18.4185 23.9865 19.2116 23.2232 20.2986C20.8451 23.7945 18.4083 27.2904 16.0008 30.7569C14.7971 32.4901 14.7677 32.6076 16.0008 34.3115C18.467 38.013 20.9626 41.6557 23.4581 45.3572C23.6121 45.5613 23.7495 45.7775 23.8691 46.0035C24.3095 46.9142 24.0159 47.4723 23.047 47.5017C21.9429 47.5899 20.8336 47.5899 19.7295 47.5017C19.1623 47.3839 18.6536 47.0724 18.2908 46.6205C15.8834 43.1833 13.5347 39.7462 11.1859 36.2797C10.9939 35.9505 10.7129 35.6822 10.3753 35.5055C10.0378 35.3289 9.65725 35.251 9.27748 35.2809C8.3967 35.2809 7.51594 35.2809 6.63516 35.2809C5.75438 35.2809 5.31404 35.5747 5.31404 36.691C5.31404 39.4231 5.31404 42.1552 5.31404 44.8872C5.31404 47.6193 5.31405 47.5017 2.75979 47.5017C0.205523 47.5017 0.0880746 47.5017 0.0880746 44.7697L0 33.0483Z" fill="black"/>
<path d="M59.129 8.60627C59.4813 7.57808 59.9217 6.4617 60.1566 5.52163C60.3915 4.58157 60.3034 4.61096 59.7455 4.4347C59.1877 4.25843 59.0704 3.75907 59.2759 3.28904C59.578 2.48873 59.9411 1.71282 60.3622 0.968231C60.5361 0.651474 60.8272 0.415623 61.173 0.311264C61.5188 0.206905 61.8918 0.242352 62.2118 0.41006L65.1477 1.73206C66.2047 2.23147 66.4101 2.81898 65.911 3.90593C64.9715 6.05045 64.0027 8.16558 62.9751 10.3101C61.5952 13.4241 60.1859 16.538 58.8354 19.6814C58.7218 20.0402 58.4867 20.3481 58.1704 20.5519C57.8542 20.7557 57.4767 20.8427 57.1032 20.7977C55.4303 20.6941 53.7553 20.9651 52.2002 21.5909C50.1605 22.5179 48.4125 23.9848 47.1449 25.833C45.8772 27.6812 45.1381 29.8407 45.0072 32.0785C45.0072 33.3123 45.0072 33.4886 46.3284 33.3124C48.1787 33.0875 50.0439 33.0088 51.9066 33.0773C54.3728 33.0773 56.8097 33.518 59.2759 33.6649C62.0529 34.032 64.8661 34.032 67.6432 33.6649C67.7881 33.6629 67.9308 33.6294 68.0614 33.5667C68.192 33.504 68.3074 33.4136 68.3996 33.3018C68.4918 33.19 68.5585 33.0594 68.5952 32.9191C68.6319 32.7789 68.6377 32.6325 68.6121 32.4898C68.5633 29.5295 67.3993 26.6967 65.3532 24.558C65.0763 24.3328 64.893 24.0127 64.8387 23.6598C64.7845 23.307 64.8631 22.9465 65.0596 22.6485C65.9404 20.739 66.7331 18.7707 67.5551 16.7731C67.5551 16.5674 68.0249 15.5099 68.2891 15.4218C68.5534 15.3336 68.7295 16.685 69.0231 16.9787C69.7865 17.6838 71.1076 17.6544 71.5187 18.712C71.1991 19.7272 70.7864 20.7106 70.2856 21.6497C70.1353 21.8977 70.0558 22.1822 70.0558 22.4722C70.0558 22.7623 70.1353 23.0468 70.2856 23.2948C71.708 25.4586 72.6123 27.9215 72.928 30.4921C73.3038 33.7172 72.8069 36.9842 71.4893 39.9515C70.6035 41.9051 69.3371 43.6623 67.7643 45.1201C66.1914 46.5779 64.3436 47.7071 62.3292 48.4415C60.4225 49.1837 58.3883 49.5423 56.343 49.497C54.2976 49.4516 52.2812 49.0031 50.4093 48.1771C46.8781 46.7451 43.9734 44.0991 42.218 40.7153C40.6324 37.958 39.9449 34.7748 40.251 31.6084C40.4463 29.2672 41.0838 26.9845 42.1299 24.8812C43.2775 22.624 44.9375 20.667 46.9768 19.1672C49.0161 17.6674 51.3781 16.6664 53.8737 16.2443C54.4315 16.2443 55.4004 16.2443 55.7233 15.5099C56.0463 14.7755 56.7803 13.4829 57.3381 12.3665C57.3734 12.2154 57.4225 12.068 57.4849 11.9259C57.8666 11.0152 58.2483 10.0751 58.6886 9.16444C59.0703 8.81192 59.1877 9.04693 59.129 8.60627Z" fill="#65C2EE"/>
<path d="M58.8652 8.19496C58.932 8.19253 58.9982 8.2077 59.0573 8.23889C59.1163 8.27007 59.1661 8.31624 59.2018 8.37274C59.2374 8.42923 59.2577 8.49407 59.2605 8.56083C59.2632 8.62759 59.2484 8.69388 59.2175 8.75313C58.6597 9.95759 58.1899 11.1914 57.6321 12.1609C57.3972 12.6015 56.8982 12.6015 56.5165 12.6015C51.9195 12.6496 47.5002 14.3849 44.0975 17.4781C40.6528 20.5187 38.3956 24.6817 37.7265 29.2289C37.0051 33.7265 37.8628 38.3352 40.1537 42.2716C42.4445 46.208 46.027 49.229 50.2923 50.821C53.7441 52.1568 57.5171 52.4257 61.1233 51.593C64.7295 50.7603 68.0032 48.8643 70.5209 46.1501C72.4288 44.3051 73.9232 42.0755 74.9051 39.6091C75.887 37.1427 76.3341 34.4958 76.2166 31.8435C76.2091 28.9538 75.5412 26.1041 74.264 23.5125C72.9867 20.9208 71.1339 18.6558 68.8474 16.8906C67.4483 15.8645 65.9765 14.9416 64.4435 14.1292C63.9444 13.8354 63.7095 13.571 64.0618 12.9247C64.4537 12.2186 64.7875 11.4817 65.06 10.7214C65.3536 9.987 65.7353 9.89889 66.3812 10.1927C71.7101 12.5992 75.9647 16.8876 78.3305 22.2372C80.5781 27.0867 81.1063 32.5579 79.8279 37.7482C78.9965 41.7848 77.102 45.5256 74.3403 48.5833C71.5786 51.6411 68.0503 53.9046 64.1206 55.1395C60.2264 56.5199 56.0184 56.7544 51.9952 55.8152C46.1805 54.4801 41.0638 51.0423 37.6281 46.1622C34.1924 41.2821 32.68 35.3039 33.3813 29.3758C33.9704 23.6877 36.5894 18.4027 40.758 14.4906C44.9266 10.5784 50.3652 8.30154 56.0761 8.07751C57.0074 8.04115 57.9402 8.08038 58.8652 8.19496Z" fill="black"/>
<path d="M72.0772 6.84429L70.3744 10.7225C71.7014 11.493 72.9588 12.3777 74.1324 13.3666C74.2792 13.161 74.5434 12.4853 74.6902 12.2796C74.837 12.0739 75.248 11.5745 75.7471 11.8976C76.2462 12.2208 76.6866 11.8976 76.9215 11.4863C77.3045 10.729 77.6285 9.94323 77.8904 9.13592C78.0162 8.79264 78.0039 8.4139 77.856 8.07954C77.7081 7.74519 77.4362 7.4814 77.0976 7.34379L74.1617 5.99225C73.1048 5.52217 72.547 5.75723 72.0772 6.84429Z" fill="#65C2EE"/>
</svg>
