<svg width="218" height="61" viewBox="0 0 218 61" fill="none" xmlns="http://www.w3.org/2000/svg">
<path d="M146.302 35.1386V21.7991C146.302 19.9872 146.646 19.6123 148.394 19.6123H167.938C169.78 19.6123 169.968 19.7998 169.999 21.6742C169.999 24.4545 169.999 24.4546 167.283 24.4546H153.702C152.203 24.4546 151.891 24.7669 151.891 26.3289V30.3276C151.891 31.6709 152.265 32.0146 153.577 32.0458C156.293 32.0458 159.009 32.0458 161.725 32.0458C163.903 32.0497 166.047 32.5859 167.97 33.6078C169.101 34.2209 170.051 35.1209 170.726 36.2176C171.4 37.3142 171.774 38.5689 171.81 39.8558C172.046 41.1057 172.007 42.3918 171.697 43.6252C171.387 44.8587 170.812 46.01 170.013 46.9994C169.215 47.9888 168.211 48.7927 167.071 49.3555C165.931 49.9182 164.682 50.2264 163.411 50.2587C159.404 50.6081 155.38 50.7229 151.36 50.6024H148.238C146.583 50.6024 146.302 50.29 146.271 48.6342V35.1074L146.302 35.1386ZM156.98 36.4194H153.358C153.162 36.3948 152.963 36.4149 152.776 36.4779C152.589 36.541 152.419 36.6455 152.278 36.7836C152.137 36.9217 152.029 37.09 151.962 37.2757C151.895 37.4615 151.87 37.66 151.891 37.8564V44.823C151.877 45.0125 151.904 45.2027 151.97 45.3811C152.035 45.5594 152.137 45.7218 152.27 45.8576C152.403 45.9935 152.563 46.0996 152.74 46.1689C152.917 46.2383 153.106 46.2693 153.296 46.26C155.575 46.26 157.854 46.26 160.133 46.26C161.303 46.1591 162.456 45.9179 163.567 45.5415C164.428 45.222 165.17 44.6466 165.694 43.8927C166.218 43.1388 166.499 42.2424 166.499 41.3241C166.499 40.4058 166.218 39.5094 165.694 38.7555C165.17 38.0016 164.428 37.4262 163.567 37.1067C161.418 36.5492 159.198 36.3176 156.98 36.4194Z" fill="black"/>
<path d="M126.039 35.1378V48.571C126.039 50.5391 126.039 50.6016 123.978 50.6016H121.855C121.012 50.6016 120.638 50.1955 120.638 49.352V26.8905C120.638 24.8287 120.357 24.5475 118.39 24.5475H110.522C109.055 24.5475 108.618 25.0786 108.524 26.6094C108.305 31.0767 108.18 35.544 107.743 39.98C107.609 42.7844 106.806 45.5159 105.402 47.9462C104.594 49.2036 103.395 50.16 101.99 50.6682C100.585 51.1763 99.0523 51.2077 97.6277 50.7578C97.3794 50.6282 97.1652 50.4419 97.0025 50.2139C96.8397 49.9859 96.733 49.7228 96.6911 49.4457C96.6393 48.3964 96.7338 47.345 96.9721 46.3218C97.0278 46.1645 97.1232 46.0244 97.249 45.9149C97.3748 45.8055 97.5267 45.7304 97.6901 45.6969C98.7671 45.7757 99.8325 45.4317 100.66 44.7376C101.488 44.0436 102.013 43.0542 102.124 41.9794C102.647 39.5178 103.002 37.0232 103.185 34.5131C103.466 30.3269 103.528 26.1095 103.653 22.0171C103.653 20.2052 104.247 19.6428 106.026 19.6428H124.134C125.789 19.6428 126.008 19.8927 126.039 21.5484V35.1378Z" fill="black"/>
<path d="M202.282 43.4479H196.037C195.563 43.4005 195.087 43.5218 194.694 43.7902C194.3 44.0587 194.013 44.4573 193.883 44.9161C193.321 46.4781 192.603 48.0402 191.979 49.5397C191.862 49.8575 191.648 50.1306 191.368 50.3211C191.088 50.5115 190.756 50.6097 190.418 50.6018H187.483C186.359 50.6018 186.015 50.0395 186.421 48.9773C187.171 47.1029 188.014 45.291 188.825 43.4479L196.35 26.3909C197.161 24.5477 198.004 22.7358 198.785 20.8926C198.937 20.4935 199.214 20.1538 199.573 19.9232C199.933 19.6927 200.357 19.5836 200.783 19.6118H203.499C203.921 19.5894 204.338 19.7055 204.687 19.9424C205.037 20.1793 205.299 20.5239 205.435 20.9239C207.901 26.4534 210.337 32.0141 212.803 37.5436L217.705 48.6337C218.329 50.0707 217.986 50.6018 216.456 50.6018C211.898 50.6018 212.928 50.9455 211.18 47.1654C210.836 46.3844 210.493 45.6034 210.212 44.7912C210.093 44.3849 209.839 44.0311 209.494 43.7872C209.148 43.5432 208.73 43.4237 208.307 43.4479H202.282ZM202.126 38.918H206.059C207.183 38.918 207.62 38.3245 207.183 37.2623C205.872 34.1383 204.561 31.0143 203.218 27.8903C203.12 27.6731 202.973 27.4814 202.789 27.3298C202.605 27.1781 202.389 27.0707 202.157 27.0156C201.876 27.0156 201.376 27.4843 201.22 27.8592C199.846 30.9832 198.566 34.1072 197.286 37.2311C196.828 38.3558 197.203 38.918 198.41 38.918H202.126Z" fill="black"/>
<path d="M0 35.2011V21.5492C0 19.9247 0.280979 19.6435 1.84204 19.6123H3.96506C5.15146 19.6123 5.55737 20.0809 5.55737 21.3617C5.55737 24.4857 5.55737 27.6097 5.55737 30.7337C5.55737 32.4207 5.80712 32.6706 7.49306 32.6706C12.145 32.6706 10.9586 33.108 13.55 29.328C15.4857 26.5476 17.3589 23.7047 19.2322 20.8932C19.468 20.4807 19.8165 20.144 20.2368 19.9227C20.6571 19.7014 21.1317 19.6046 21.605 19.6436C22.2919 19.6436 23.01 19.6436 23.6969 19.6436C25.1018 19.6436 25.5076 20.487 24.6959 21.6429C22.167 25.3604 19.5756 29.0781 17.0155 32.7644C15.7354 34.6075 15.7042 34.7325 17.0155 36.5444C19.6381 40.4806 22.2919 44.3543 24.9457 48.2905C25.1094 48.5077 25.2555 48.7375 25.3827 48.9778C25.8511 49.9463 25.5388 50.5399 24.5086 50.5711C23.3344 50.6649 22.1548 50.6649 20.9806 50.5711C20.3774 50.4458 19.8365 50.1145 19.4507 49.6339C16.8906 45.9789 14.393 42.3237 11.8953 38.6374C11.691 38.2874 11.3922 38.0021 11.0333 37.8142C10.6743 37.6263 10.2697 37.5435 9.86581 37.5753C8.92917 37.5753 7.99256 37.5753 7.05592 37.5753C6.11929 37.5753 5.65103 37.8877 5.65103 39.0748C5.65103 41.9801 5.65103 44.8855 5.65103 47.7908C5.65103 50.6961 5.65104 50.5711 2.9348 50.5711C0.218556 50.5711 0.0936597 50.5711 0.0936597 47.6658L0 35.2011Z" fill="black"/>
<path d="M62.8788 9.20854C63.2534 8.11514 63.7217 6.92796 63.9715 5.92828C64.2213 4.92861 64.1276 4.95986 63.5344 4.77242C62.9412 4.58498 62.8164 4.05395 63.0349 3.55411C63.3562 2.70305 63.7424 1.87794 64.1901 1.08613C64.3751 0.749288 64.6846 0.498481 65.0524 0.387504C65.4201 0.276528 65.8168 0.314222 66.157 0.492565L69.2792 1.8984C70.4031 2.42948 70.6216 3.05425 70.0908 4.21013C69.0918 6.49064 68.0615 8.73989 66.9687 11.0204C65.5013 14.3318 64.0027 17.6433 62.5665 20.986C62.4457 21.3675 62.1957 21.6949 61.8594 21.9117C61.5231 22.1284 61.1216 22.2209 60.7245 22.1731C58.9455 22.0629 57.1643 22.351 55.5106 23.0165C53.3416 24.0024 51.4827 25.5622 50.1347 27.5277C48.7866 29.4931 48.0006 31.7895 47.8614 34.1692C47.8614 35.4813 47.8614 35.6688 49.2664 35.4813C51.2341 35.2422 53.2175 35.1586 55.1984 35.2314C57.821 35.2314 60.4123 35.7 63.0349 35.8562C65.9881 36.2466 68.9797 36.2466 71.9329 35.8562C72.0869 35.8541 72.2387 35.8185 72.3776 35.7518C72.5164 35.6851 72.6392 35.589 72.7372 35.4701C72.8353 35.3512 72.9062 35.2123 72.9452 35.0632C72.9843 34.9141 72.9904 34.7583 72.9632 34.6066C72.9113 31.4586 71.6735 28.4461 69.4976 26.1718C69.2032 25.9323 69.0082 25.592 68.9505 25.2167C68.8928 24.8415 68.9765 24.4582 69.1854 24.1412C70.122 22.1106 70.965 20.0175 71.8392 17.8932C71.8392 17.6746 72.3388 16.5499 72.6198 16.4562C72.9007 16.3625 73.0881 17.7995 73.4003 18.1119C74.212 18.8617 75.617 18.8304 76.0541 19.9551C75.7143 21.0347 75.2754 22.0805 74.7429 23.0791C74.583 23.3428 74.4985 23.6453 74.4985 23.9538C74.4985 24.2622 74.583 24.5648 74.7429 24.8285C76.2555 27.1295 77.217 29.7486 77.5527 32.4822C77.9525 35.9119 77.424 39.386 76.0228 42.5415C75.0809 44.619 73.7342 46.4876 72.0616 48.0378C70.389 49.5881 68.424 50.7889 66.2819 51.5699C64.2543 52.3591 62.0911 52.7405 59.916 52.6923C57.741 52.644 55.5967 52.1671 53.6061 51.2887C49.8509 49.7659 46.7621 46.9521 44.8953 43.3538C43.2092 40.4216 42.4781 37.0366 42.8036 33.6694C43.0113 31.1797 43.6893 28.7522 44.8017 26.5155C46.022 24.1152 47.7872 22.0341 49.9559 20.4392C52.1246 18.8443 54.6363 17.7798 57.2901 17.3309C57.8833 17.3309 58.9137 17.3309 59.2571 16.5499C59.6005 15.7689 60.3811 14.3944 60.9743 13.2072C61.0119 13.0466 61.0641 12.8897 61.1304 12.7387C61.5363 11.7702 61.9421 10.7705 62.4105 9.8021C62.8163 9.42722 62.9412 9.67713 62.8788 9.20854Z" fill="#65C2EE"/>
<path d="M62.5983 8.77117C62.6693 8.76859 62.7397 8.78472 62.8025 8.81788C62.8653 8.85105 62.9183 8.90015 62.9562 8.96022C62.9941 9.0203 63.0157 9.08925 63.0186 9.16024C63.0215 9.23123 63.0058 9.30173 62.973 9.36474C62.3798 10.6456 61.8802 11.9577 61.287 12.9886C61.0372 13.4572 60.5065 13.4572 60.1007 13.4572C55.2122 13.5083 50.5126 15.3537 46.8941 18.643C43.2309 21.8764 40.8307 26.3034 40.119 31.139C39.352 35.9218 40.2641 40.8228 42.7002 45.0088C45.1362 49.1947 48.946 52.4073 53.4817 54.1003C57.1524 55.5209 61.1647 55.8068 64.9996 54.9213C68.8345 54.0358 72.3157 52.0196 74.9931 49.1332C77.022 47.1712 78.6112 44.8002 79.6554 42.1774C80.6995 39.5546 81.1749 36.7399 81.0501 33.9194C81.0421 30.8465 80.3318 27.8161 78.9735 25.06C77.6153 22.304 75.645 19.8953 73.2135 18.0183C71.7257 16.927 70.1605 15.9456 68.5303 15.0817C67.9996 14.7693 67.7498 14.4881 68.1244 13.8008C68.5412 13.0499 68.8962 12.2664 69.186 11.4579C69.4982 10.6769 69.9041 10.5832 70.5909 10.8956C76.2577 13.4547 80.7821 18.0151 83.298 23.7039C85.6881 28.8609 86.2498 34.6791 84.8903 40.1985C84.0062 44.4911 81.9915 48.4691 79.0547 51.7207C76.1179 54.9724 72.3658 57.3795 68.187 58.6926C64.0459 60.1606 59.571 60.41 55.2926 59.4112C49.1091 57.9915 43.668 54.3357 40.0144 49.1461C36.3608 43.9565 34.7525 37.5992 35.4984 31.2952C36.1248 25.2463 38.9099 19.6262 43.3428 15.466C47.7758 11.3058 53.5593 8.88451 59.6323 8.64628C60.6227 8.60761 61.6147 8.64933 62.5983 8.77117Z" fill="black"/>
<path d="M76.6478 7.33484L74.837 11.4589C76.2482 12.2784 77.5853 13.2192 78.8333 14.2708C78.9894 14.0521 79.2704 13.3335 79.4265 13.1148C79.5826 12.8961 80.0197 12.365 80.5504 12.7086C81.0812 13.0523 81.5495 12.7086 81.7993 12.2712C82.2066 11.4659 82.5511 10.6303 82.8296 9.77179C82.9634 9.40674 82.9503 9.00398 82.793 8.64842C82.6358 8.29286 82.3466 8.01234 81.9866 7.86601L78.8645 6.42876C77.7405 5.92887 77.1473 6.17884 76.6478 7.33484Z" fill="#65C2EE"/>
</svg>
