<svg width="1300" height="408" viewBox="0 0 1300 408" fill="none" xmlns="http://www.w3.org/2000/svg">
<g opacity="0.23">
<path d="M516.632 36.3768L518.27 38.3263C515.066 41 512.019 43.6358 508.859 46.1358C507.879 46.9108 507.684 47.6499 507.901 48.8207C508.62 52.5794 509.162 56.3815 509.894 60.1446C510.103 61.2503 509.775 61.8651 508.962 62.5291C505.904 65.0071 502.868 67.5184 499.892 70.0973C499.639 70.3532 499.443 70.6604 499.318 70.9983C499.193 71.3362 499.141 71.6969 499.167 72.0563C499.77 76.151 500.509 80.2286 501.249 84.489L498.755 84.9565C498.534 83.7502 498.32 82.6301 498.125 81.5077C497.718 79.1809 497.084 76.8647 496.99 74.5196C496.879 71.8581 495.583 70.7604 493.197 70.0431C490.028 69.1122 486.968 67.7652 483.857 66.6769C483.483 66.5789 483.148 66.3653 482.902 66.0666C482.655 65.7678 482.509 65.399 482.483 65.0124C481.745 60.5084 480.911 56.0105 480.206 51.5113C480.191 51.1752 480.248 50.8399 480.372 50.5275C480.497 50.2151 480.687 49.9329 480.929 49.6997C484.389 46.7235 487.898 43.8033 491.456 40.9389C491.735 40.7528 492.05 40.6286 492.381 40.5745C492.712 40.5205 493.05 40.5377 493.374 40.6253C497.148 41.9252 500.895 43.3008 504.612 44.7521C505.644 45.1536 506.306 45.0011 507.132 44.2876C510.259 41.6236 513.429 39.0412 516.632 36.3768ZM491.053 66.602C492.777 67.2375 494.486 67.941 496.227 68.4874C496.53 68.5643 496.846 68.5775 497.154 68.5262C497.463 68.4749 497.757 68.3602 498.02 68.1894C500.879 65.9375 503.679 63.619 506.422 61.2337C506.658 60.998 506.842 60.7147 506.961 60.4026C507.08 60.0905 507.132 59.7567 507.112 59.4232C506.584 55.8385 505.965 52.2683 505.255 48.7126C505.166 48.3886 505.008 48.0873 504.794 47.8286C504.579 47.5699 504.312 47.3598 504.01 47.2121C500.683 45.9078 497.323 44.6816 493.932 43.5335C493.608 43.4503 493.27 43.4363 492.94 43.4924C492.61 43.5485 492.295 43.6733 492.016 43.8589C489.229 46.0777 486.516 48.4073 483.731 50.6438C483.391 50.8771 483.134 51.2127 482.998 51.6019C482.862 51.9911 482.854 52.4136 482.974 52.808C483.549 55.9212 484.139 59.0027 484.556 62.1269C484.777 63.7595 485.333 64.7944 487.064 65.1889C488.443 65.4866 489.741 66.1217 491.069 66.6149L491.053 66.602Z" fill="#2F00A9"/>
<path d="M442.54 80.9803L440.933 79.0658C443.448 76.9655 445.784 74.6954 448.434 72.8813C450.818 71.2508 451.429 69.5013 450.695 66.7292C449.853 63.5474 449.469 60.2359 449.014 56.9603C448.981 56.603 449.022 56.2426 449.137 55.9027C449.252 55.5628 449.438 55.2509 449.681 54.9876C453.132 52.0006 456.641 49.0804 460.209 46.2268C460.485 46.0374 460.799 45.9094 461.129 45.8513C461.459 45.7931 461.798 45.8061 462.123 45.8895C466.476 47.4109 470.809 49.0098 475.123 50.6862C475.403 50.8268 475.649 51.0259 475.845 51.2701C476.041 51.5143 476.182 51.7979 476.259 52.1015C477.115 56.6377 477.9 61.1888 478.615 65.7548C478.63 66.0914 478.572 66.4272 478.446 66.7397C478.321 67.0523 478.13 67.3343 477.886 67.5671C474.426 70.5433 470.918 73.4625 467.361 76.3247C467.084 76.5114 466.77 76.6372 466.441 76.6938C466.111 76.7503 465.773 76.7363 465.449 76.6527C461.731 75.3646 458.035 73.9926 454.359 72.5822C454.012 72.4142 453.621 72.36 453.241 72.4272C452.862 72.4944 452.513 72.6797 452.245 72.9566C449.458 75.3465 446.626 77.6581 443.79 80.0151C443.397 80.3229 442.985 80.6329 442.54 80.9803ZM459.678 71.861C461.399 72.4938 463.1 73.2014 464.858 73.7245C465.181 73.8165 465.518 73.8408 465.85 73.7958C466.183 73.7509 466.502 73.6377 466.788 73.4634C469.661 71.1887 472.481 68.8187 475.249 66.4252C475.456 66.2224 475.617 65.9779 475.721 65.7079C475.826 65.4379 475.872 65.1486 475.856 64.8594C475.302 61.2299 474.687 57.6111 473.976 54.0135C473.886 53.6895 473.729 53.3882 473.514 53.1295C473.3 52.8709 473.033 52.6607 472.731 52.513C469.368 51.1811 465.973 49.9274 462.546 48.7517C462.245 48.6788 461.932 48.6703 461.627 48.7268C461.323 48.7833 461.033 48.9035 460.778 49.0796C457.912 51.3684 455.089 53.7128 452.311 56.1126C452.104 56.3122 451.942 56.5536 451.836 56.8206C451.73 57.0877 451.682 57.3743 451.696 57.6614C452.257 61.3399 452.892 65.0082 453.601 68.6661C453.681 68.9423 453.817 69.1988 454.001 69.4191C454.185 69.6394 454.414 69.8187 454.672 69.9455C456.317 70.669 458.014 71.2299 459.678 71.861Z" fill="#2F00A9"/>
<path d="M468.631 2.84956L471.143 2.44306C471.826 6.37134 472.57 10.2231 473.113 14.106C473.324 15.6138 473.925 16.3367 475.365 16.8098C478.957 17.9997 482.463 19.4165 486.029 20.6818C486.403 20.7798 486.738 20.9933 486.984 21.2921C487.231 21.5908 487.377 21.9597 487.403 22.3463C488.13 26.8576 488.948 31.3485 489.655 35.8654C489.684 36.1761 489.645 36.4895 489.543 36.7842C489.44 37.0789 489.275 37.3481 489.06 37.5737C485.55 40.5642 481.996 43.507 478.4 46.4022C478.125 46.5928 477.812 46.7216 477.483 46.7797C477.154 46.8378 476.816 46.8238 476.492 46.7387C472.179 45.2343 467.913 43.595 463.599 42.0577C463.224 41.957 462.89 41.7402 462.646 41.4382C462.401 41.1362 462.259 40.7646 462.238 40.3766C461.506 35.8719 460.682 31.3877 459.968 26.8808C459.953 26.5447 460.009 26.2093 460.133 25.8966C460.257 25.5839 460.446 25.3011 460.687 25.0666C463.742 22.4208 466.902 19.8998 469.953 17.2456C470.209 16.9929 470.409 16.6881 470.539 16.3518C470.668 16.0154 470.724 15.6552 470.703 15.2954C470.09 11.193 469.349 7.11885 468.631 2.84956ZM470.939 41.9346L470.909 42.0075C472.637 42.6455 474.342 43.3405 476.086 43.8954C476.367 43.9704 476.66 43.9865 476.947 43.9425C477.235 43.8986 477.51 43.7956 477.755 43.64C480.663 41.312 483.528 38.9283 486.352 36.4887C486.537 36.301 486.681 36.0758 486.773 35.8281C486.865 35.5805 486.903 35.316 486.885 35.0524C486.322 31.3671 485.711 27.6878 485.004 24.0297C484.91 23.7284 484.754 23.4504 484.544 23.2143C484.335 22.9782 484.078 22.7894 483.79 22.6603C480.416 21.3339 477.016 20.0809 473.588 18.9013C473.286 18.8224 472.971 18.8093 472.663 18.8631C472.356 18.9169 472.063 19.0362 471.806 19.213C468.935 21.4983 466.111 23.8468 463.334 26.2585C463.129 26.4873 462.973 26.7558 462.876 27.0475C462.779 27.3392 462.743 27.6477 462.771 27.9539C462.963 29.7672 463.334 31.5911 463.672 33.395C464.06 35.499 463.847 38.1381 465.057 39.553C466.268 40.9678 468.919 41.1712 470.929 41.9269L470.939 41.9346Z" fill="#2F00A9"/>
<path d="M504.888 61.1363L502.37 61.5857L500.114 48.5167L502.625 48.0293L504.888 61.1363Z" fill="#2F00A9"/>
<path d="M458.808 68.6204L456.295 69.0631L454.13 56.5232L456.646 56.0772L458.808 68.6204Z" fill="#2F00A9"/>
<path d="M471.025 23.2298L471.828 21.0327L483.552 25.3387L482.74 27.5399L471.025 23.2298Z" fill="#2F00A9"/>
</g>
<g opacity="0.23">
<path d="M1278.84 292.099L1281.37 295.113C1276.41 299.246 1271.7 303.321 1266.82 307.185C1265.3 308.383 1265 309.526 1265.34 311.336C1266.45 317.146 1267.29 323.024 1268.42 328.841C1268.74 330.551 1268.24 331.501 1266.98 332.527C1262.25 336.358 1257.56 340.24 1252.96 344.227C1252.57 344.623 1252.26 345.098 1252.07 345.62C1251.88 346.142 1251.8 346.7 1251.84 347.256C1252.77 353.585 1253.91 359.889 1255.06 366.475L1251.2 367.198C1250.86 365.333 1250.53 363.601 1250.23 361.866C1249.6 358.269 1248.62 354.689 1248.47 351.063C1248.3 346.949 1246.3 345.252 1242.61 344.143C1237.71 342.704 1232.98 340.622 1228.17 338.939C1227.59 338.788 1227.07 338.458 1226.69 337.996C1226.31 337.534 1226.08 336.964 1226.05 336.366C1224.9 329.404 1223.62 322.45 1222.53 315.495C1222.5 314.976 1222.59 314.457 1222.78 313.974C1222.98 313.492 1223.27 313.055 1223.64 312.695C1228.99 308.094 1234.42 303.58 1239.92 299.152C1240.35 298.864 1240.84 298.672 1241.35 298.588C1241.86 298.505 1242.38 298.531 1242.88 298.667C1248.72 300.676 1254.51 302.803 1260.25 305.046C1261.85 305.667 1262.87 305.431 1264.15 304.328C1268.98 300.21 1273.88 296.218 1278.84 292.099ZM1239.29 338.824C1241.96 339.806 1244.6 340.894 1247.29 341.738C1247.76 341.857 1248.25 341.878 1248.73 341.798C1249.2 341.719 1249.66 341.542 1250.06 341.278C1254.48 337.797 1258.81 334.212 1263.05 330.525C1263.42 330.161 1263.7 329.723 1263.89 329.24C1264.07 328.758 1264.15 328.242 1264.12 327.726C1263.3 322.185 1262.35 316.666 1261.25 311.169C1261.11 310.668 1260.87 310.202 1260.53 309.802C1260.2 309.402 1259.79 309.078 1259.32 308.849C1254.18 306.833 1248.99 304.937 1243.74 303.163C1243.24 303.034 1242.72 303.012 1242.21 303.099C1241.7 303.186 1241.21 303.379 1240.78 303.666C1236.47 307.096 1232.28 310.697 1227.97 314.154C1227.45 314.515 1227.05 315.034 1226.84 315.635C1226.63 316.237 1226.62 316.89 1226.8 317.5C1227.69 322.313 1228.6 327.076 1229.25 331.906C1229.59 334.43 1230.45 336.029 1233.13 336.639C1235.26 337.099 1237.27 338.081 1239.32 338.844L1239.29 338.824Z" fill="#2F00A9"/>
<path d="M1164.3 361.051L1161.81 358.091C1165.7 354.844 1169.31 351.335 1173.41 348.531C1177.09 346.01 1178.04 343.306 1176.91 339.02C1175.6 334.102 1175.01 328.982 1174.31 323.919C1174.25 323.366 1174.32 322.809 1174.5 322.284C1174.67 321.758 1174.96 321.276 1175.34 320.869C1180.67 316.252 1186.1 311.737 1191.61 307.326C1192.04 307.033 1192.52 306.835 1193.03 306.745C1193.55 306.655 1194.07 306.676 1194.57 306.804C1201.3 309.156 1208 311.628 1214.67 314.22C1215.1 314.437 1215.48 314.745 1215.78 315.122C1216.09 315.5 1216.31 315.938 1216.42 316.407C1217.75 323.42 1218.96 330.455 1220.07 337.514C1220.09 338.034 1220 338.553 1219.81 339.036C1219.61 339.52 1219.32 339.956 1218.94 340.315C1213.59 344.916 1208.17 349.429 1202.67 353.854C1202.24 354.142 1201.76 354.337 1201.25 354.424C1200.74 354.512 1200.21 354.49 1199.71 354.361C1193.97 352.369 1188.25 350.249 1182.57 348.068C1182.03 347.809 1181.43 347.725 1180.84 347.829C1180.25 347.932 1179.72 348.219 1179.3 348.647C1174.99 352.341 1170.61 355.915 1166.23 359.559C1165.62 360.034 1164.99 360.514 1164.3 361.051ZM1190.79 346.953C1193.45 347.932 1196.08 349.025 1198.8 349.834C1199.3 349.976 1199.82 350.014 1200.33 349.944C1200.85 349.875 1201.34 349.7 1201.78 349.43C1206.22 345.914 1210.58 342.25 1214.86 338.55C1215.18 338.237 1215.43 337.859 1215.59 337.441C1215.75 337.024 1215.83 336.577 1215.8 336.13C1214.94 330.519 1213.99 324.925 1212.89 319.363C1212.76 318.862 1212.51 318.397 1212.18 317.997C1211.85 317.597 1211.44 317.272 1210.97 317.044C1205.77 314.985 1200.52 313.046 1195.23 311.229C1194.76 311.116 1194.28 311.103 1193.8 311.191C1193.33 311.278 1192.89 311.464 1192.49 311.736C1188.06 315.274 1183.7 318.898 1179.4 322.608C1179.08 322.917 1178.83 323.29 1178.67 323.703C1178.5 324.116 1178.43 324.559 1178.45 325.002C1179.32 330.689 1180.3 336.36 1181.4 342.014C1181.52 342.441 1181.73 342.838 1182.02 343.178C1182.3 343.519 1182.65 343.796 1183.05 343.992C1185.6 345.111 1188.22 345.978 1190.79 346.953Z" fill="#2F00A9"/>
<path d="M1204.63 240.27L1208.51 239.642C1209.57 245.714 1210.72 251.669 1211.56 257.671C1211.89 260.002 1212.82 261.12 1215.04 261.851C1220.59 263.691 1226.01 265.881 1231.53 267.837C1232.11 267.988 1232.62 268.318 1233 268.78C1233.38 269.242 1233.61 269.812 1233.65 270.41C1234.77 277.384 1236.04 284.326 1237.13 291.309C1237.18 291.789 1237.12 292.274 1236.96 292.729C1236.8 293.185 1236.55 293.601 1236.21 293.95C1230.79 298.573 1225.29 303.122 1219.73 307.597C1219.31 307.892 1218.83 308.091 1218.32 308.181C1217.81 308.271 1217.28 308.249 1216.78 308.118C1210.12 305.792 1203.52 303.258 1196.85 300.881C1196.27 300.726 1195.76 300.39 1195.38 299.924C1195 299.457 1194.78 298.882 1194.75 298.282C1193.62 291.319 1192.34 284.387 1191.24 277.42C1191.22 276.9 1191.3 276.382 1191.5 275.898C1191.69 275.415 1191.98 274.978 1192.35 274.615C1197.07 270.525 1201.96 266.628 1206.67 262.525C1207.07 262.134 1207.38 261.663 1207.58 261.143C1207.78 260.623 1207.87 260.066 1207.84 259.51C1206.89 253.168 1205.74 246.87 1204.63 240.27ZM1208.2 300.691L1208.15 300.804C1210.82 301.79 1213.46 302.864 1216.16 303.722C1216.59 303.838 1217.04 303.863 1217.49 303.795C1217.93 303.727 1218.36 303.568 1218.74 303.327C1223.23 299.729 1227.66 296.044 1232.03 292.272C1232.31 291.982 1232.54 291.634 1232.68 291.251C1232.82 290.868 1232.88 290.459 1232.85 290.052C1231.98 284.355 1231.04 278.667 1229.94 273.012C1229.8 272.546 1229.56 272.117 1229.23 271.752C1228.91 271.387 1228.51 271.095 1228.07 270.895C1222.85 268.845 1217.59 266.908 1212.29 265.084C1211.83 264.962 1211.34 264.942 1210.86 265.025C1210.39 265.108 1209.94 265.293 1209.54 265.566C1205.1 269.099 1200.74 272.729 1196.44 276.458C1196.13 276.811 1195.89 277.226 1195.74 277.677C1195.59 278.128 1195.53 278.605 1195.57 279.078C1195.87 281.882 1196.44 284.701 1196.97 287.49C1197.57 290.742 1197.24 294.822 1199.11 297.009C1200.98 299.197 1205.08 299.511 1208.18 300.679L1208.2 300.691Z" fill="#2F00A9"/>
<path d="M1260.68 330.374L1256.79 331.069L1253.3 310.866L1257.18 310.112L1260.68 330.374Z" fill="#2F00A9"/>
<path d="M1189.45 341.944L1185.56 342.629L1182.21 323.244L1186.1 322.554L1189.45 341.944Z" fill="#2F00A9"/>
<path d="M1208.33 271.775L1209.57 268.379L1227.7 275.035L1226.44 278.438L1208.33 271.775Z" fill="#2F00A9"/>
</g>
</svg>
