<svg width="382" height="386" viewBox="0 0 382 386" fill="none" xmlns="http://www.w3.org/2000/svg">
<g opacity="0.23">
<path d="M162.669 36.7005L170.724 32.9194C176.865 46.1561 183.019 58.8272 188.613 71.7583C190.348 75.7672 192.667 77.0916 196.814 77.4139C210.15 78.3657 223.473 79.9567 236.835 80.8701C240.756 81.1615 242.536 82.8224 244.045 86.1701C249.657 98.7358 255.401 111.256 261.427 123.637C262.063 124.724 262.924 125.663 263.952 126.39C264.98 127.117 266.151 127.615 267.387 127.852C281.753 129.501 296.182 130.675 311.231 132.007L310.563 140.86C306.292 140.521 302.319 140.233 298.354 139.883C290.133 139.164 281.744 139.222 273.742 137.429C264.659 135.406 259.786 138.8 255.216 146.219C249.22 156.092 241.919 165.22 235.444 174.754C234.776 175.932 233.754 176.87 232.523 177.435C231.293 177.999 229.916 178.162 228.588 177.9C212.719 176.341 196.785 175.109 180.962 173.441C179.814 173.189 178.733 172.695 177.791 171.993C176.849 171.29 176.067 170.395 175.498 169.366C168.566 154.992 161.868 140.502 155.402 125.897C155.025 124.788 154.89 123.61 155.005 122.444C155.12 121.278 155.483 120.15 156.069 119.136C163.856 107.548 171.873 96.1242 180.119 84.8651C182.404 81.739 182.485 79.3643 180.819 75.9323C174.642 62.9639 168.78 49.9227 162.669 36.7005ZM241.67 150.367C245.367 145.11 249.281 139.967 252.692 134.577C253.225 133.622 253.554 132.566 253.659 131.477C253.763 130.388 253.642 129.289 253.301 128.249C248.273 116.558 242.968 105.004 237.385 93.5882C236.803 92.5764 236.012 91.6999 235.066 91.0168C234.119 90.3337 233.038 89.8595 231.895 89.6255C219.319 88.1816 206.71 87.0589 194.068 86.2575C192.893 86.2689 191.734 86.5295 190.668 87.0222C189.601 87.5149 188.652 88.2284 187.881 89.1156C180.483 99.1868 173.319 109.437 166.39 119.866C165.817 120.888 165.465 122.018 165.357 123.184C165.249 124.349 165.388 125.525 165.763 126.634C170.744 138.052 176.165 149.32 181.207 160.747C181.689 162.105 182.59 163.275 183.782 164.085C184.973 164.896 186.392 165.304 187.831 165.253C198.859 166.111 209.792 166.894 220.714 168.295C226.424 169.019 230.418 168.07 233.308 162.577C235.554 158.185 238.867 154.368 241.728 150.322L241.67 150.367Z" fill="#906FCC"/>
<path d="M246.529 327.276L238.62 330.983C233.793 320.594 228.234 310.652 224.496 300.065C221.138 290.538 215.782 286.899 205.764 286.882C194.266 286.863 182.741 285.18 171.274 283.768C170.037 283.561 168.858 283.095 167.814 282.4C166.77 281.706 165.885 280.799 165.215 279.738C158.239 265.386 151.54 250.896 145.12 236.269C144.729 235.164 144.58 233.988 144.681 232.82C144.782 231.651 145.131 230.518 145.704 229.496C154.759 216.154 164.058 202.946 173.602 189.874C174.328 189.055 175.222 188.402 176.223 187.96C177.224 187.518 178.308 187.296 179.402 187.31C195.485 188.502 211.555 189.945 227.613 191.638C228.762 191.893 229.844 192.39 230.786 193.096C231.727 193.802 232.508 194.701 233.074 195.734C240.006 210.108 246.701 224.594 253.161 239.191C253.542 240.297 253.684 241.471 253.578 242.636C253.472 243.801 253.121 244.93 252.547 245.949C244.851 257.357 236.892 268.613 228.82 279.77C227.941 280.791 227.406 282.064 227.291 283.407C227.176 284.75 227.488 286.095 228.181 287.25C233.74 298.821 238.993 310.476 244.396 322.183C245.081 323.79 245.757 325.458 246.529 327.276ZM231.175 261.141C234.861 255.893 238.781 250.783 242.13 245.31C242.731 244.304 243.117 243.184 243.264 242.021C243.411 240.858 243.317 239.678 242.986 238.553C237.894 226.794 232.432 215.131 226.845 203.62C226.346 202.739 225.666 201.974 224.849 201.377C224.031 200.78 223.096 200.365 222.106 200.159C209.355 198.761 196.586 197.582 183.801 196.747C182.626 196.758 181.468 197.019 180.401 197.512C179.335 198.004 178.385 198.718 177.614 199.605C170.091 209.771 162.802 220.117 155.748 230.641C155.23 231.594 154.92 232.645 154.836 233.725C154.752 234.806 154.898 235.892 155.262 236.913C160.408 248.662 165.781 260.312 171.38 271.864C171.868 272.742 172.537 273.506 173.343 274.105C174.149 274.704 175.073 275.124 176.055 275.337C188.978 276.751 201.933 277.907 214.919 278.804C215.923 278.785 216.911 278.555 217.821 278.13C218.731 277.706 219.542 277.095 220.202 276.338C224.125 271.428 227.547 266.197 231.175 261.141Z" fill="#906FCC"/>
<path d="M6.27288 168.75L7.16185 159.895C21.0383 161.12 34.7099 162.076 48.3066 163.736C53.5862 164.38 56.568 162.999 59.4616 158.558C66.7122 147.489 74.6519 136.914 82.1331 126.003C82.8012 124.825 83.823 123.887 85.0536 123.322C86.2841 122.758 87.6609 122.595 88.9889 122.857C104.873 124.46 120.769 125.739 136.653 127.416C137.728 127.599 138.751 128.01 139.654 128.622C140.556 129.235 141.317 130.033 141.884 130.965C148.819 145.522 155.554 160.181 162.089 174.942C162.485 176.043 162.638 177.216 162.538 178.382C162.437 179.548 162.085 180.678 161.507 181.694C152.546 194.916 143.17 207.861 134.097 221.057C133.419 222.234 132.387 223.167 131.148 223.721C129.908 224.276 128.525 224.423 127.197 224.143C111.331 222.564 95.4523 221.308 79.5948 219.667C78.447 219.414 77.3656 218.921 76.4218 218.22C75.478 217.52 74.6931 216.627 74.1187 215.601C67.9375 202.895 62.2728 189.944 56.0593 177.244C55.4375 176.148 54.5887 175.198 53.5698 174.458C52.5509 173.718 51.3856 173.204 50.1519 172.951C35.7517 171.329 21.3311 170.167 6.27288 168.75ZM140.29 196.139L140.509 196.306C144.218 191.041 148.099 185.904 151.543 180.507C152.049 179.626 152.367 178.649 152.478 177.639C152.588 176.628 152.488 175.606 152.184 174.636C146.943 162.713 141.476 150.881 135.783 139.142C135.317 138.345 134.686 137.656 133.933 137.123C133.179 136.589 132.321 136.222 131.415 136.047C118.467 134.633 105.497 133.384 92.5119 132.48C91.4104 132.525 90.3311 132.804 89.3457 133.299C88.3603 133.794 87.4913 134.493 86.7965 135.349C79.2811 145.559 71.9896 155.925 64.9219 166.447C64.3834 167.397 64.0553 168.451 63.9599 169.539C63.8646 170.627 64.0042 171.722 64.3692 172.751C69.499 184.512 74.8843 196.171 80.5251 207.728C81.1128 208.627 81.8791 209.396 82.7763 209.986C83.6736 210.577 84.6827 210.976 85.7408 211.159C92.0353 212.142 98.5261 212.53 104.92 213.011C112.372 213.594 121.089 216.692 126.955 213.874C132.821 211.056 135.894 202.278 140.255 196.166L140.29 196.139Z" fill="#906FCC"/>
<path d="M235.672 98.6837L234.922 107.599L188.777 103.457L189.391 94.5338L235.672 98.6837Z" fill="#906FCC"/>
<path d="M219.451 261.164L218.683 270.056L174.405 266.084L175.165 257.18L219.451 261.164Z" fill="#906FCC"/>
<path d="M77.2234 179.006L70.5305 174.313L95.6205 138.567L102.32 143.293L77.2234 179.006Z" fill="#906FCC"/>
</g>
</svg>
