<svg width="38" height="42" viewBox="0 0 38 42" fill="none" xmlns="http://www.w3.org/2000/svg">
<circle cx="19" cy="22.5625" r="18" stroke="#F7F7F7" stroke-width="2"/>
<path d="M28.8537 2.48232L28.8781 2.49417L28.903 2.50469C29.2181 2.63762 29.5204 2.76134 29.8175 2.88291C30.6783 3.2351 31.4948 3.56919 32.4474 4.05646C32.3317 4.3313 32.1798 4.67267 31.998 5.06863C31.4996 6.15424 30.8077 7.58312 30.1082 9.02652L30.0632 9.11934C29.3817 10.5256 28.697 11.9384 28.1955 13.0259C27.9402 13.5794 27.7249 14.0647 27.5804 14.4283C27.5098 14.6061 27.4455 14.7809 27.4032 14.9308C27.3833 15.0012 27.3568 15.1051 27.3449 15.219C27.3391 15.2751 27.3324 15.3708 27.3466 15.4848C27.3588 15.5822 27.4001 15.8164 27.5891 16.036C29.2465 17.9627 30.2392 20.4364 30.2392 23.1341C30.2392 29.2344 25.1393 34.2292 18.7863 34.2292C12.4333 34.2292 7.33337 29.2344 7.33337 23.1341C7.33337 17.2856 12.0195 12.4545 18.005 12.0644C17.9599 12.0673 18.5865 12.0532 19.1867 11.9731C19.4898 11.9327 19.8471 11.8689 20.1656 11.7617C20.3245 11.7082 20.5098 11.6321 20.6839 11.5197C20.8507 11.412 21.0844 11.2213 21.2227 10.9091C21.7797 9.65125 23.0644 7.0473 24.247 4.74415C24.8368 3.59554 25.3955 2.53291 25.8194 1.76073C25.9191 1.57919 26.01 1.41608 26.0911 1.27321C26.4735 1.44442 26.8029 1.58093 27.1248 1.7143L27.1276 1.71549C27.6472 1.93078 28.1468 2.13792 28.8537 2.48232ZM32.6688 3.47322C32.6694 3.47026 32.6698 3.46866 32.6699 3.46853C32.67 3.46839 32.6696 3.4699 32.6688 3.47322ZM26.4536 0.673981C26.4536 0.674025 26.4528 0.675136 26.4512 0.677157C26.4529 0.674948 26.4537 0.673937 26.4536 0.673981Z" stroke="#F7F7F7" stroke-width="2"/>
</svg>
