<svg width="624" height="172" viewBox="0 0 624 172" fill="none" xmlns="http://www.w3.org/2000/svg">
<path d="M180.754 25.5583C181.969 22.4679 183.024 19.3142 183.915 16.1104C184.645 14.4943 183.915 13.2513 182.699 12.7541C181.483 12.2568 180.632 10.7651 181.24 9.27332C182.136 6.82061 183.234 4.45006 184.523 2.18738C185.039 1.23073 185.896 0.515189 186.916 0.190741C187.936 -0.133707 189.04 -0.0416731 189.995 0.447198L198.75 4.42493C201.912 6.041 202.52 7.78149 201.061 11.1379L192.549 30.6552C188.252 40.2687 184.199 49.8408 180.389 59.3715C180.032 60.4632 179.316 61.3945 178.362 62.0066C177.409 62.6187 176.277 62.8735 175.16 62.7278C170.176 62.4367 165.191 63.2862 160.568 65.2142C155.617 67.4184 151.244 70.7827 147.8 75.0351C142.422 81.1255 139.321 88.9625 139.045 97.1628C139.045 101.016 139.045 101.514 142.937 101.016C148.499 100.274 154.113 100.024 159.717 100.271C167.013 100.271 174.309 101.638 181.727 102.135C190.004 103.192 198.377 103.192 206.654 102.135C208.6 102.135 209.694 100.892 209.572 98.53C209.407 89.4909 205.936 80.843 199.845 74.2892C199.033 73.5871 198.499 72.6067 198.342 71.5315C198.185 70.4564 198.417 69.3599 198.993 68.4465C201.669 62.6038 203.979 56.0149 206.532 50.6694C206.532 50.0479 207.87 46.6914 208.6 46.4428C209.329 46.1942 209.937 50.2967 210.91 51.2912C211.883 52.2857 217.111 53.28 218.327 56.5121C217.323 59.6401 216.062 62.6759 214.558 65.5871C214.119 66.3388 213.887 67.1981 213.887 68.0736C213.887 68.9491 214.119 69.808 214.558 70.5596C218.782 77.1907 221.484 84.7132 222.462 92.5633C223.628 102.405 222.114 112.386 218.084 121.404C215.475 127.398 211.706 132.79 207.004 137.255C202.302 141.721 196.764 145.166 190.725 147.385C179.196 151.881 166.402 151.569 155.096 146.515C144.596 142.14 135.97 134.071 130.777 123.766C126.053 115.327 124.013 105.596 124.94 95.9196C125.493 88.7776 127.393 81.8126 130.533 75.408C134.006 68.4935 139.016 62.5075 145.162 57.9306C151.307 53.3538 158.416 50.3135 165.919 49.0537C167.621 49.0537 170.54 49.0534 171.512 46.8157C172.485 44.5781 174.674 40.6001 176.254 37.1193V35.8761C177.47 33.0169 178.565 30.1578 179.902 27.4229C181.24 24.688 180.997 26.1799 180.754 25.5583Z" fill="#65C2EE"/>
<path d="M418.169 100.262V62.2069C418.169 56.8941 419.157 55.9055 424.096 55.9055H479.91C485.096 55.9055 485.59 56.5234 485.713 61.8363C485.713 69.7438 485.713 69.7436 478.057 69.7436H439.284C434.963 69.7436 434.098 70.6084 434.098 75.0564C434.098 79.5044 434.098 82.717 434.098 86.4236C434.098 90.1303 435.086 91.3658 438.914 91.3658C446.57 91.3658 454.349 91.3658 462.128 91.3658C468.495 91.3098 474.774 92.8385 480.403 95.814C483.59 97.5953 486.264 100.168 488.167 103.285C490.071 106.401 491.139 109.956 491.27 113.606C491.998 117.176 491.929 120.864 491.066 124.404C490.203 127.944 488.568 131.249 486.279 134.083C483.99 136.917 481.102 139.209 477.824 140.796C474.545 142.382 470.956 143.223 467.314 143.259C455.902 144.269 444.439 144.599 432.987 144.247H423.726C419.033 144.247 418.169 143.382 418.169 138.687V100.262ZM448.546 103.845H438.296C437.731 103.787 437.159 103.856 436.624 104.046C436.088 104.237 435.602 104.544 435.2 104.947C434.798 105.349 434.49 105.836 434.299 106.372C434.109 106.908 434.04 107.48 434.098 108.046V127.938C434.063 128.472 434.141 129.007 434.325 129.51C434.51 130.012 434.798 130.47 435.17 130.854C435.542 131.238 435.991 131.54 436.487 131.74C436.983 131.94 437.515 132.034 438.05 132.016C444.594 132.016 451.139 132.016 457.56 132.016C460.891 131.759 464.172 131.052 467.314 129.915C469.721 128.864 471.772 127.138 473.218 124.945C474.665 122.752 475.445 120.187 475.464 117.559C475.299 115.029 474.424 112.596 472.938 110.542C471.453 108.487 469.418 106.894 467.068 105.945C461.045 104.232 454.806 103.4 448.546 103.474V103.845Z" fill="#F7F7F7"/>
<path d="M360.258 100.262V138.564C360.258 144.247 360.258 144.371 354.331 144.371H348.28C345.934 144.371 344.823 143.259 344.823 140.788V76.6627C344.823 70.8556 343.958 69.9906 338.402 69.9906H315.928C311.73 69.9906 310.495 71.5968 310.248 75.7977C310.248 88.1532 309.26 101.374 308.026 114.1C307.616 122.096 305.332 129.884 301.357 136.834C299.026 140.406 295.597 143.121 291.587 144.57C287.577 146.019 283.205 146.122 279.131 144.865C278.421 144.47 277.808 143.922 277.338 143.259C276.868 142.596 276.552 141.836 276.414 141.035C276.397 138.129 276.686 135.23 277.279 132.386C277.425 131.948 277.684 131.557 278.032 131.253C278.379 130.949 278.801 130.743 279.255 130.656C282.269 130.682 285.189 129.603 287.464 127.623C289.739 125.643 291.211 122.898 291.603 119.907C293.114 112.902 294.146 105.801 294.69 98.6555C295.431 86.3 295.554 74.6857 296.048 62.7009C296.048 57.5116 297.653 55.9055 302.716 55.9055H354.454C359.147 55.9055 359.888 56.6469 359.888 61.342L360.258 100.262Z" fill="#F7F7F7"/>
<path d="M577.955 123.613H560.42C559.077 123.48 557.731 123.829 556.623 124.599C555.514 125.369 554.715 126.509 554.37 127.814C552.641 132.262 550.665 136.586 548.813 140.911C548.515 141.843 547.918 142.652 547.114 143.21C546.311 143.769 545.345 144.046 544.368 144H536.095C532.761 144 531.773 142.393 533.008 139.428C535.107 134.115 537.576 128.802 539.799 123.613C546.961 107.304 554.246 91.1181 561.408 74.9324C563.754 69.6195 566.1 64.4302 568.323 59.1173C568.749 57.9818 569.535 57.017 570.561 56.3701C571.586 55.7231 572.796 55.4296 574.003 55.5341H581.783C582.978 55.5042 584.152 55.8442 585.147 56.5077C586.142 57.1711 586.907 58.1254 587.339 59.2406C594.254 75.0557 601.293 90.8707 608.331 106.686C613.023 117.311 617.716 127.814 622.284 138.439C624.137 142.517 623.149 144 618.703 144C605.738 144 608.701 144.988 603.639 134.115C602.651 132.015 601.786 129.667 600.922 127.443C600.587 126.282 599.866 125.269 598.879 124.572C597.891 123.876 596.695 123.538 595.489 123.613H577.955ZM577.955 110.64C581.783 110.64 585.487 110.64 589.191 110.64C592.896 110.64 593.637 108.91 592.402 105.944C588.697 97.0485 584.993 88.2762 581.042 79.5038C580.789 78.8674 580.388 78.3 579.873 77.8489C579.357 77.3978 578.742 77.0756 578.078 76.9089C577.214 76.9089 575.855 78.2682 575.361 79.3802C571.534 88.1526 567.829 96.9252 564.125 105.821C562.766 109.034 564.125 110.64 567.335 110.64C570.546 110.64 574.003 110.64 577.461 110.64H577.955Z" fill="#F7F7F7"/>
<path d="M0.432861 100.262V61.342C0.432861 56.6469 1.17366 55.7818 5.74245 55.7818H11.7933C15.1273 55.7818 16.2384 57.1409 16.2384 60.724C16.2384 69.6199 16.2384 78.5159 16.2384 87.4119C16.2384 92.2305 16.2384 92.972 21.6716 92.972C35.0075 92.972 31.5501 94.3313 39.0825 83.4584L55.2584 59.365C55.9015 58.1839 56.8748 57.2161 58.0591 56.5797C59.2433 55.9433 60.5873 55.6659 61.9265 55.7818H67.977C71.9283 55.7818 73.1633 58.2529 70.8171 61.5889C63.5318 72.2147 56.2464 82.8405 48.8376 93.3427C45.2566 98.532 45.1331 98.9027 48.8376 104.216L71.4344 137.575L72.6693 139.552C74.0276 142.394 72.6691 144 70.1995 144.247C66.8701 144.494 63.527 144.494 60.1976 144.247C59.3143 144.109 58.4669 143.798 57.7041 143.332C56.9412 142.865 56.2782 142.253 55.7525 141.529C48.4671 131.15 41.3049 120.772 34.2665 110.146C33.6718 109.159 32.8133 108.359 31.7877 107.835C30.7621 107.311 29.6108 107.084 28.4633 107.181H20.5603C17.4733 107.181 16.4856 108.046 16.4856 111.382C16.4856 119.783 16.4856 128.062 16.4856 136.093C16.4856 144.124 16.4854 144 8.58265 144C0.679869 144 0.556463 144 0.556463 135.722L0.432861 100.262Z" fill="#F7F7F7"/>
<path d="M179.109 24.5235C179.302 24.551 179.487 24.6199 179.651 24.7252C179.815 24.8306 179.955 24.9699 180.06 25.134C180.166 25.2981 180.234 25.4831 180.262 25.6762C180.29 25.8693 180.275 26.0663 180.22 26.2535C178.492 29.9601 177.01 33.6667 175.405 36.632C175.037 37.1541 174.528 37.5596 173.937 37.8005C173.346 38.0415 172.698 38.1074 172.07 37.991C158.071 38.0614 144.6 43.3474 134.285 52.8177C123.808 62.0879 116.979 74.7922 115.022 88.6486C112.768 102.301 115.347 116.313 122.312 128.267C129.278 140.222 140.194 149.369 153.178 154.133C163.686 158.302 175.21 159.188 186.232 156.674C197.253 154.16 207.255 148.363 214.918 140.048C220.812 134.084 225.388 126.948 228.352 119.103C231.316 111.257 232.601 102.877 232.123 94.5032C231.646 86.1297 229.418 77.9498 225.582 70.4924C221.746 63.035 216.388 56.4664 209.856 51.2114C205.607 48.1092 201.152 45.3022 196.52 42.8098C194.915 41.9449 194.174 41.0799 195.285 39.2266C196.439 37.0203 197.469 34.7518 198.372 32.4312C199.236 30.2072 200.348 29.96 202.323 30.8249C217.662 37.996 230.084 50.2077 237.521 65.427C244.957 80.6462 246.96 97.9547 243.196 114.472C240.668 126.717 234.917 138.064 226.537 147.34C218.157 156.615 207.454 163.482 195.532 167.23C183.655 171.541 170.775 172.271 158.488 169.33C146.198 166.824 134.799 161.084 125.465 152.701C116.132 144.317 109.202 133.594 105.391 121.638C101.734 111.35 100.55 100.345 101.933 89.5136C103.701 72.25 111.627 56.2018 124.259 44.3109C136.891 32.4199 153.383 25.4828 170.712 24.7708C173.503 24.5034 176.308 24.4206 179.109 24.5235Z" fill="#F7F7F7"/>
<path d="M218.531 19.7953L213.032 32.3318C217.343 34.8086 221.419 37.6797 225.208 40.9092C225.208 40.1174 226.518 38.0062 226.911 37.3464C227.303 36.6866 228.743 34.971 230.446 36.0267C232.148 37.0824 233.457 36.0267 234.112 34.8391C235.348 32.371 236.399 29.8123 237.254 27.1851C237.684 26.0823 237.664 24.8531 237.198 23.7653C236.732 22.6775 235.858 21.8198 234.766 21.3792C231.624 19.9276 228.612 18.3439 225.47 17.0243C222.328 15.7046 220.102 16.2324 218.531 19.7953Z" fill="#65C2EE"/>
</svg>
