<svg width="36" height="36" viewBox="0 0 36 36" fill="none" xmlns="http://www.w3.org/2000/svg">
<rect x="1" y="1" width="34" height="34" rx="5" stroke="#F7F7F7" stroke-width="2"/>
<path d="M10.6862 21.8042C8.89031 19.7842 6.79507 14.7997 6.05612 12.4582L6 12.3074H10.0969C10.2372 12.5787 10.9949 14.0861 11.977 15.9252C12.9592 17.7643 13.9133 18.3371 13.9694 18.3371C14.0255 18.3371 14.1939 18.2768 14.4464 17.7944C14.699 17.312 14.727 15.6237 14.6709 14.5987C14.6148 13.5736 14.3544 13.2209 14.186 13.1304C14.0177 13.04 13.6464 12.9081 13.6744 12.8478C13.7025 12.7875 13.6888 12.3376 14.3061 12.1868C14.9235 12.0361 16.4668 11.9456 17.7015 12.0361C18.9362 12.1265 18.9923 13.3023 19.0485 13.7546C19.0934 14.1163 18.8988 15.9554 18.7959 16.8297C18.7398 17.7643 19.273 18.2166 19.3852 18.307C20.8893 17.5593 22.5 14.0761 23.1173 12.428C24.2117 12.4381 26.7204 12.4582 28 12.4582C27.9439 13.0611 26.9898 15.5032 26.625 15.9554C26.2602 16.4076 24.4923 18.3974 24.4643 19.3622C24.4362 20.327 27.1862 22.3771 27.7755 23.5227C28.2469 24.4392 27.6539 24.8493 27.2985 24.9397L23.3699 25C23.0145 24.8895 22.2474 24.596 22.023 24.3066C21.3776 23.372 20.3393 21.9248 19.6378 22.1057C18.9362 22.2866 19.3852 22.6484 18.6556 24.6684C15.8495 25.6633 12.9236 24.3208 10.6862 21.8042Z" stroke="#F7F7F7" stroke-width="2"/>
</svg>
