<svg width="38" height="38" viewBox="0 0 38 38" fill="none" xmlns="http://www.w3.org/2000/svg">
<g clip-path="url(#clip0_195_15818)">
<path d="M18.0945 0.0180054C15.2683 0.184254 12.8547 0.822536 10.45 2.03379C5.21314 4.67598 1.49032 9.57738 0.359229 15.3189C0.106885 16.5955 0.0178223 17.5663 0.0178223 19.0002C0.0178223 20.1936 0.0504785 20.6924 0.195947 21.7018C0.857979 26.3389 3.20032 30.5397 6.81032 33.5679C9.63064 35.9339 13.0952 37.4332 16.7438 37.8636C17.578 37.9616 17.9788 37.9854 19 37.9854C20.0658 37.9854 20.4399 37.9646 21.3602 37.8488C27.6509 37.0739 33.1609 33.17 36.005 27.476C36.9134 25.6561 37.5131 23.7324 37.8041 21.7018C37.9495 20.6954 37.9822 20.1936 37.9822 19.015C37.9822 17.8335 37.9466 17.2843 37.8041 16.2986C36.6136 7.96238 30.0319 1.38066 21.7016 0.193161C20.8169 0.0684738 20.2528 0.0269127 19.2375 0.0180054C18.7061 0.0120697 18.1925 0.0120697 18.0945 0.0180054ZM20.2409 2.12879C21.1969 3.13519 21.6244 3.61613 22.1974 4.32269C23.465 5.89613 24.5783 7.61207 25.3888 9.26269C25.6322 9.75551 26.0063 10.5779 25.9914 10.5927C25.9647 10.6194 25.2225 10.8332 24.6703 10.9697C23.8005 11.1894 23.1474 11.3171 22.1766 11.4596C21.7313 11.5249 21.1138 11.5843 20.1667 11.6525L19.9203 11.6674V6.76894C19.9203 2.89769 19.9292 1.87051 19.9559 1.87051C19.9767 1.87051 20.1044 1.98629 20.2409 2.12879ZM18.0797 6.82832V11.6703L17.8659 11.6525C17.7472 11.6436 17.4563 11.6229 17.2188 11.608C16.3281 11.5427 15.3663 11.4091 14.4133 11.2191C13.6295 11.0618 12.2016 10.6877 12.2016 10.6402C12.2016 10.6313 12.3025 10.3968 12.4272 10.1147C13.4841 7.73379 14.9506 5.45972 16.8002 3.3341C17.2306 2.84129 18.0233 1.98925 18.0559 1.98925C18.0678 1.98925 18.0797 4.16832 18.0797 6.82832ZM15.2416 2.29207C15.2267 2.31285 15.1169 2.44941 14.9922 2.59785C13.2288 4.68191 11.685 7.14894 10.6727 9.50316C10.5539 9.78222 10.447 10.0168 10.4381 10.0257C10.3966 10.0672 8.70142 9.28644 7.98001 8.8916C7.15173 8.43738 6.08595 7.77832 6.08595 7.71894C6.08595 7.65957 7.55845 6.21082 7.94142 5.89613C9.84142 4.32269 11.8156 3.25394 14.0838 2.56816C14.2886 2.50879 15.2059 2.26238 15.2534 2.25644C15.2594 2.25644 15.2534 2.27425 15.2416 2.29207ZM23.3344 2.40785C26.027 3.12332 28.3783 4.39098 30.4416 6.2316C30.8364 6.58785 31.8309 7.59129 31.8874 7.69222C31.9111 7.73973 31.8725 7.77535 31.5756 7.96832C30.8453 8.44332 29.9161 8.96582 29.1086 9.35472C28.5653 9.61597 27.8261 9.94551 27.7756 9.94551C27.7578 9.94551 27.6569 9.74957 27.55 9.50613C26.5733 7.27363 25.175 5.02629 23.4709 2.95707C23.2572 2.69879 23.0524 2.44644 23.0138 2.40191C22.9752 2.35441 22.9544 2.31582 22.9692 2.31582C22.9811 2.31582 23.1474 2.35738 23.3344 2.40785ZM6.13642 9.97223C7.12501 10.566 8.09579 11.0588 9.17642 11.5189C9.49407 11.6555 9.76423 11.7743 9.7761 11.7861C9.78798 11.798 9.7672 11.9108 9.72564 12.0414C9.41985 13.0271 9.12892 14.2413 8.9686 15.2299C8.84095 16.0018 8.69845 17.3228 8.69845 17.7177C8.69845 17.8157 8.68954 17.9374 8.68064 17.9879L8.65985 18.0799L5.27251 18.0739L1.88517 18.065L1.89407 17.8869C1.96235 16.456 2.30376 14.7846 2.8411 13.2557C3.29829 11.9583 4.09392 10.3849 4.79751 9.39035L4.92813 9.20629L5.31407 9.45566C5.52485 9.59519 5.89595 9.82676 6.13642 9.97223ZM33.3183 9.56847C34.295 11.0558 35.0105 12.6174 35.5063 14.3452C35.7824 15.313 36.0199 16.6371 36.0852 17.5752C36.0941 17.7147 36.1089 17.8839 36.1178 17.9522L36.1327 18.0799H32.8552H29.5777L29.5569 17.6999C29.4589 15.9543 29.1116 14.0216 28.5861 12.3057C28.503 12.0266 28.4317 11.7772 28.4288 11.7475C28.4258 11.706 28.5475 11.6436 28.972 11.4596C30.1269 10.9578 31.3441 10.3107 32.4217 9.62488C32.7067 9.44379 32.965 9.27754 32.9977 9.25379C33.0303 9.22707 33.0659 9.21519 33.0778 9.22113C33.0927 9.23004 33.1995 9.38441 33.3183 9.56847ZM26.7217 12.5432C27.2086 14.078 27.5084 15.5564 27.6509 17.115C27.6747 17.3763 27.6984 17.6969 27.7044 17.8275L27.7133 18.065L23.8183 18.0739L19.9203 18.0799V15.7999V13.5199L20.5081 13.4843C22.3933 13.3714 24.507 12.9944 26.1992 12.4719C26.413 12.4066 26.603 12.3561 26.6267 12.3591C26.6475 12.3621 26.692 12.4452 26.7217 12.5432ZM12.0294 12.5402C13.7839 13.0508 15.6661 13.3744 17.4949 13.4843L18.0797 13.5199V15.7999V18.0799H14.3094H10.5391V17.9493C10.5391 17.7325 10.6252 16.7618 10.6905 16.2689C10.8122 15.3397 11.0141 14.3214 11.2545 13.4308C11.3941 12.9083 11.5455 12.4096 11.5633 12.4096C11.5692 12.4096 11.78 12.4689 12.0294 12.5402ZM8.68064 19.9858C8.68954 20.0244 8.69845 20.1343 8.69845 20.2322C8.69845 20.4816 8.77564 21.3277 8.84689 21.8947C9.03095 23.3197 9.38126 24.8724 9.82657 26.2232C9.90673 26.4696 9.96314 26.6833 9.95126 26.6922C9.93939 26.7041 9.76423 26.7813 9.55939 26.8614C8.33923 27.3483 6.95579 28.0579 5.6911 28.8505C5.41501 29.0197 5.18048 29.1504 5.1686 29.1355C5.10329 29.0643 4.70251 28.4764 4.51845 28.1825C3.33095 26.3033 2.53532 24.2727 2.14048 22.1174C2.04251 21.5949 1.94454 20.8408 1.91485 20.4252C1.90595 20.2857 1.8911 20.1164 1.8822 20.0452L1.86735 19.9205H5.2636H8.66282L8.68064 19.9858ZM18.0797 22.4707V25.0208L17.7917 25.0386C16.0045 25.1544 14.8378 25.3177 13.3208 25.665C12.9022 25.763 11.7949 26.0569 11.7533 26.0836C11.7325 26.0955 11.5039 25.4068 11.3436 24.8486C10.925 23.3821 10.6459 21.77 10.5509 20.2382L10.5302 19.9205H14.3064H18.0797V22.4707ZM27.7133 20.1343C27.648 20.9922 27.6272 21.2178 27.5619 21.7314C27.4313 22.7349 27.2205 23.771 26.9533 24.7299C26.7989 25.2702 26.5139 26.1549 26.4931 26.1549C26.4872 26.1549 26.3299 26.1104 26.1458 26.0539C25.0949 25.7363 23.7945 25.4483 22.6516 25.2821C21.8203 25.1604 21.3008 25.1099 20.2113 25.0386L19.9203 25.0208V22.4707V19.9205H23.8242H27.7311L27.7133 20.1343ZM36.1178 20.0303C36.1089 20.0927 36.0941 20.2619 36.0852 20.4104C35.9249 22.7557 35.1233 25.3504 33.8972 27.4908C33.5914 28.0193 32.968 28.9841 32.8314 29.1355C32.8195 29.1504 32.585 29.0227 32.3089 28.8505C31.0888 28.0875 29.5895 27.3127 28.5238 26.8941C28.3783 26.8377 28.2625 26.7783 28.2625 26.7575C28.2625 26.7368 28.2892 26.6536 28.3219 26.5675C28.4258 26.3033 28.7672 25.1514 28.9038 24.5963C29.2481 23.2039 29.4619 21.8354 29.545 20.4905L29.5806 19.9205H32.8581H36.1356L36.1178 20.0303ZM18.0797 31.4452L18.0767 35.9963L17.7472 35.6549C15.6661 33.4966 13.8492 30.89 12.6766 28.3844C12.5459 28.0994 12.442 27.853 12.448 27.8352C12.4747 27.7729 13.7839 27.4433 14.6953 27.2711C15.7641 27.0693 17.0347 26.9208 17.8363 26.903L18.0797 26.8971V31.4452ZM21.2117 26.9743C22.6397 27.1138 24.1953 27.4077 25.4274 27.7758C25.5758 27.8174 25.7183 27.8619 25.748 27.8679C25.7747 27.8768 25.7984 27.8975 25.7984 27.9183C25.7984 27.9866 24.988 29.5779 24.6763 30.1182C23.7322 31.7629 22.6545 33.2502 21.2919 34.788C20.6803 35.4797 20.042 36.1299 19.9767 36.1299C19.9203 36.1299 19.9203 36.0171 19.9203 31.5105V26.8882L20.3449 26.9089C20.5764 26.9208 20.9683 26.9505 21.2117 26.9743ZM11.1477 29.465C12.1452 31.5224 13.3772 33.4164 14.9328 35.2838C15.1436 35.5361 15.3099 35.7439 15.3009 35.7439C15.2534 35.7439 14.5974 35.5777 14.2559 35.4797C11.4119 34.6544 8.9122 33.1671 6.78657 31.0266L6.37392 30.6139L6.62329 30.4507C7.59407 29.8213 9.17642 29.0108 10.3906 28.521L10.643 28.42L10.7142 28.5714C10.7558 28.6546 10.9488 29.0554 11.1477 29.465ZM28.1052 28.7288C29.0403 29.1266 30.5633 29.9252 31.3767 30.4507L31.6261 30.6139L31.1986 31.0444C29.3105 32.9444 27.0899 34.3457 24.5991 35.2066C24.0142 35.4085 23.0078 35.6994 23.0078 35.6638C23.0078 35.6579 23.1652 35.4619 23.3581 35.2304C24.9524 33.3214 26.318 31.1958 27.2828 29.1266C27.4372 28.7971 27.5797 28.5299 27.5975 28.5299C27.6183 28.5299 27.8469 28.6189 28.1052 28.7288Z" fill="#F7F7F7"/>
</g>
<defs>
<clipPath id="clip0_195_15818">
<rect width="38" height="38" fill="white"/>
</clipPath>
</defs>
</svg>
