<svg width="37" height="37" viewBox="0 0 37 37" fill="none" xmlns="http://www.w3.org/2000/svg">
<path d="M12.6604 9.22168C13.6608 9.22168 16.0991 12.5334 16.7243 14.3397C17.2186 15.7681 13.5982 15.3031 13.5982 16.7482C13.5982 18.5546 19.2251 23.3716 20.4755 23.3716C21.7259 23.3716 21.7259 20.6621 22.6637 20.0599C23.6015 19.4578 27.6654 23.2183 27.6654 23.9737C27.6654 25.178 25.1645 28.1886 21.7259 27.5865C18.9125 27.0938 17.068 26.3822 13.5982 22.7695C9.98995 19.0126 9.2218 14.6233 9.2218 12.8344C9.2218 10.9979 11.41 9.22168 12.6604 9.22168Z" stroke="#F7F7F7" stroke-width="2"/>
<path d="M35.0488 18.0244C35.0488 27.4267 27.4267 35.0488 18.0244 35.0488C14.3693 35.0488 11.3482 33.5253 10.2227 32.7203C9.8242 32.4354 9.40179 32.5205 9.27112 32.5516C9.09453 32.5937 8.93547 32.6672 8.82004 32.7265C8.58091 32.8493 8.30481 33.0299 8.03332 33.2153C7.82782 33.3556 7.61484 33.5055 7.3921 33.6623C6.97977 33.9525 6.53403 34.2662 6.04054 34.5864C5.2937 35.071 4.53518 35.5035 3.84103 35.7616C3.19344 36.0023 2.73746 36.0403 2.43772 35.9654C2.43236 35.916 2.4285 35.8489 2.4299 35.7607C2.43356 35.5296 2.47159 35.2306 2.54616 34.8679C2.69539 34.1423 2.96501 33.2817 3.26216 32.4125C3.38023 32.0672 3.50633 31.7104 3.62854 31.3647C3.80045 30.8784 3.96467 30.4138 4.08802 30.0333C4.19535 29.7022 4.29144 29.377 4.34447 29.1041C4.37036 28.9708 4.39513 28.8055 4.39271 28.6367C4.39104 28.5199 4.37926 28.1439 4.09154 27.8291C2.79292 26.4081 2.00671 24.3984 1.55174 22.4621C1.10017 20.5403 1 18.8001 1 18.0244C1 8.62208 8.62208 1 18.0244 1C27.4267 1 35.0488 8.62208 35.0488 18.0244Z" stroke="#F7F7F7" stroke-width="2"/>
</svg>
