<svg width="235" height="60" viewBox="0 0 235 60" fill="none" xmlns="http://www.w3.org/2000/svg">
<path d="M68.0469 8.96241C68.5055 7.87871 68.9038 6.7728 69.24 5.64935C69.5153 5.08265 69.24 4.64678 68.7811 4.47241C68.3222 4.29804 68.0011 3.77494 68.2305 3.25183C68.5687 2.39175 68.9831 1.56048 69.4694 0.767039C69.6639 0.431575 69.9875 0.180659 70.3725 0.0668862C70.7574 -0.0468864 71.1739 -0.0146133 71.5344 0.156817L74.8383 1.55167C76.0313 2.11837 76.2608 2.7287 75.7101 3.90569L72.498 10.7497C70.8766 14.1208 69.347 17.4774 67.9092 20.8195C67.7746 21.2023 67.5043 21.5289 67.1445 21.7436C66.7847 21.9582 66.3576 22.0475 65.9361 21.9965C64.0552 21.8944 62.174 22.1923 60.4296 22.8684C58.5614 23.6413 56.9109 24.821 55.6115 26.3122C53.5819 28.4479 52.4118 31.196 52.3076 34.0716C52.3076 35.423 52.3076 35.5973 53.776 35.4229C55.875 35.1625 57.9937 35.075 60.1085 35.1614C62.8617 35.1614 65.615 35.6409 68.4141 35.8153C71.5376 36.1859 74.6974 36.1859 77.8209 35.8153C78.5551 35.8153 78.968 35.3793 78.9222 34.551C78.8596 31.3813 77.55 28.3488 75.2512 26.0506C74.9449 25.8044 74.7433 25.4606 74.6842 25.0836C74.6251 24.7066 74.7125 24.3221 74.93 24.0018C75.9395 21.953 76.8113 19.6425 77.775 17.768C77.775 17.55 78.2798 16.3731 78.5551 16.2859C78.8304 16.1987 79.0599 17.6373 79.427 17.986C79.7941 18.3348 81.7672 18.6834 82.226 19.8168C81.8469 20.9137 81.371 21.9783 80.8035 22.9991C80.6378 23.2627 80.5504 23.564 80.5504 23.871C80.5504 24.178 80.6378 24.4792 80.8035 24.7428C82.3976 27.0681 83.4173 29.706 83.7862 32.4587C84.2265 35.91 83.6549 39.4097 82.1343 42.572C81.1497 44.674 79.7274 46.5649 77.953 48.1307C76.1786 49.6965 74.0888 50.9047 71.8097 51.6828C67.4592 53.2595 62.631 53.15 58.3648 51.3777C54.4021 49.8434 51.1472 47.014 49.1873 43.4003C47.4047 40.4412 46.6349 37.0288 46.9847 33.6356C47.1936 31.1312 47.9103 28.6888 49.0955 26.4429C50.406 24.0183 52.2967 21.9192 54.6157 20.3142C56.9347 18.7093 59.6174 17.6432 62.4487 17.2014C63.0911 17.2014 64.1925 17.2013 64.5596 16.4166C64.9267 15.632 65.7526 14.237 66.3491 13.0165V12.5805C66.808 11.5779 67.2209 10.5753 67.7257 9.61626C68.2304 8.65723 68.1387 9.18037 68.0469 8.96241Z" fill="#65C2EE"/>
<path d="M157.64 35.1587V21.8142C157.64 19.9511 158.012 19.6045 159.876 19.6045H180.938C182.896 19.6045 183.082 19.8212 183.129 21.6842C183.129 24.4571 183.128 24.457 180.239 24.457H165.608C163.977 24.457 163.651 24.7603 163.651 26.32C163.651 27.8798 163.651 29.0063 163.651 30.3061C163.651 31.6059 164.024 32.0392 165.468 32.0392C168.357 32.0392 171.293 32.0392 174.228 32.0392C176.631 32.0195 179.001 32.5556 181.125 33.599C182.327 34.2236 183.336 35.1259 184.055 36.2187C184.773 37.3115 185.176 38.558 185.225 39.8379C185.5 41.0899 185.474 42.383 185.148 43.6244C184.823 44.8659 184.206 46.025 183.342 47.0187C182.478 48.0125 181.388 48.8163 180.151 49.3725C178.914 49.9288 177.56 50.2238 176.185 50.2363C171.879 50.5905 167.553 50.7062 163.231 50.5829H159.736C157.966 50.5829 157.64 50.2796 157.64 48.6331V35.1587ZM169.103 36.4152H165.235C165.022 36.3948 164.806 36.419 164.604 36.4858C164.402 36.5526 164.218 36.6605 164.066 36.8015C163.915 36.9426 163.798 37.1134 163.727 37.3013C163.655 37.4893 163.629 37.6898 163.651 37.8883V44.8638C163.638 45.051 163.667 45.2388 163.736 45.4149C163.806 45.591 163.915 45.7515 164.055 45.8862C164.196 46.0209 164.365 46.1268 164.552 46.197C164.739 46.2671 164.94 46.3001 165.142 46.2936C167.611 46.2936 170.081 46.2936 172.504 46.2936C173.761 46.2036 175 45.9558 176.185 45.557C177.094 45.1885 177.868 44.5831 178.413 43.8142C178.959 43.0452 179.254 42.1457 179.261 41.2244C179.199 40.337 178.868 39.4839 178.308 38.7634C177.747 38.0429 176.979 37.4843 176.092 37.1517C173.819 36.5511 171.465 36.2593 169.103 36.2852V36.4152Z" fill="#F7F7F7"/>
<path d="M135.786 35.1587V48.5899C135.786 50.5829 135.786 50.6263 133.549 50.6263H131.266C130.381 50.6263 129.961 50.2363 129.961 49.3698V26.8833C129.961 24.847 129.635 24.5436 127.538 24.5436H119.057C117.473 24.5436 117.007 25.1069 116.914 26.58C116.914 30.9126 116.541 35.5486 116.075 40.0112C115.921 42.8153 115.059 45.5463 113.559 47.9833C112.679 49.2358 111.385 50.188 109.872 50.6961C108.359 51.2042 106.709 51.2404 105.171 50.7995C104.903 50.6611 104.672 50.4686 104.495 50.2362C104.317 50.0038 104.198 49.7373 104.146 49.4564C104.139 48.4375 104.249 47.421 104.472 46.4236C104.527 46.2699 104.625 46.1328 104.756 46.0261C104.888 45.9195 105.047 45.8472 105.218 45.817C106.356 45.8259 107.457 45.4476 108.316 44.7532C109.174 44.0589 109.73 43.0965 109.878 42.0476C110.448 39.5911 110.837 37.1012 111.043 34.5954C111.322 30.2628 111.369 26.1901 111.555 21.9874C111.555 20.1677 112.161 19.6045 114.071 19.6045H133.596C135.367 19.6045 135.646 19.8645 135.646 21.5109L135.786 35.1587Z" fill="#F7F7F7"/>
<path d="M217.937 43.347H211.32C210.814 43.3003 210.306 43.4228 209.887 43.6927C209.469 43.9627 209.167 44.3624 209.037 44.8201C208.385 46.3798 207.639 47.8962 206.94 49.4127C206.828 49.7397 206.602 50.0231 206.299 50.2189C205.996 50.4148 205.632 50.5121 205.263 50.4958H202.141C200.883 50.4958 200.51 49.9326 200.976 48.8928C201.768 47.0297 202.7 45.1667 203.539 43.347C206.241 37.6279 208.99 31.9521 211.693 26.2763C212.578 24.4133 213.464 22.5936 214.303 20.7306C214.463 20.3324 214.76 19.994 215.147 19.7672C215.534 19.5403 215.99 19.4374 216.446 19.474H219.382C219.833 19.4636 220.276 19.5828 220.651 19.8154C221.027 20.0481 221.316 20.3827 221.479 20.7738C224.088 26.3196 226.744 31.8654 229.4 37.4111C231.171 41.1372 232.942 44.82 234.666 48.5461C235.365 49.9758 234.992 50.4958 233.314 50.4958C228.422 50.4958 229.54 50.8424 227.63 47.0296C227.257 46.2931 226.931 45.47 226.604 44.6901C226.478 44.2827 226.206 43.9276 225.833 43.6833C225.46 43.4391 225.009 43.3205 224.554 43.347H217.937ZM217.937 38.7976C219.382 38.7976 220.78 38.7976 222.178 38.7976C223.575 38.7976 223.855 38.191 223.389 37.1512C221.991 34.0317 220.593 30.9556 219.102 27.8794C219.007 27.6562 218.855 27.4573 218.661 27.2991C218.467 27.1409 218.234 27.0279 217.984 26.9694C217.658 26.9694 217.145 27.4461 216.959 27.836C215.514 30.9122 214.116 33.9884 212.718 37.108C212.206 38.2344 212.718 38.7976 213.93 38.7976C215.141 38.7976 216.446 38.7976 217.751 38.7976H217.937Z" fill="#F7F7F7"/>
<path d="M0 35.1581V21.5103C0 19.8639 0.279551 19.5605 2.00366 19.5605H4.28704C5.54517 19.5605 5.96448 20.0371 5.96448 21.2936C5.96448 24.4131 5.96448 27.5326 5.96448 30.6521C5.96448 32.3418 5.96449 32.6018 8.01479 32.6018C13.0473 32.6018 11.7426 33.0785 14.5851 29.2658L20.6893 20.817C20.932 20.4029 21.2993 20.0635 21.7462 19.8403C22.1931 19.6172 22.7003 19.5199 23.2056 19.5605H25.4889C26.98 19.5605 27.446 20.4271 26.5607 21.5969C23.8114 25.323 21.0622 29.0491 18.2663 32.7318C16.915 34.5515 16.8684 34.6815 18.2663 36.5446L26.7936 48.2426L27.2596 48.9359C27.7722 49.9324 27.2595 50.4956 26.3276 50.5823C25.0712 50.6689 23.8096 50.6689 22.5532 50.5823C22.2199 50.5339 21.9001 50.4248 21.6122 50.2613C21.3244 50.0977 21.0741 49.8828 20.8758 49.6291C18.1265 45.9897 15.4237 42.3502 12.7677 38.6242C12.5432 38.2782 12.2193 37.9975 11.8323 37.8138C11.4453 37.63 11.0108 37.5505 10.5777 37.5844H7.59542C6.43049 37.5844 6.05777 37.8876 6.05777 39.0574C6.05777 42.0036 6.05777 44.9065 6.05777 47.7227C6.05777 50.539 6.0577 50.4957 3.07546 50.4957C0.0932122 50.4957 0.0466431 50.4956 0.0466431 47.5928L0 35.1581Z" fill="#F7F7F7"/>
<path d="M67.4264 8.59972C67.4993 8.60937 67.569 8.63351 67.6309 8.67046C67.6929 8.7074 67.7456 8.75624 67.7854 8.81379C67.8251 8.87133 67.8511 8.9362 67.8616 9.00392C67.872 9.07164 67.8666 9.14073 67.8458 9.20635C67.1934 10.5061 66.6343 11.8059 66.0286 12.8458C65.8899 13.0288 65.6976 13.171 65.4745 13.2555C65.2515 13.34 65.0071 13.3631 64.7703 13.3223C59.4875 13.347 54.4041 15.2006 50.5115 18.5215C46.5579 21.7722 43.9805 26.2272 43.2423 31.0862C42.3917 35.8737 43.3647 40.7871 45.9932 44.9791C48.6218 49.1711 52.7411 52.3789 57.6409 54.0491C61.6064 55.5112 65.9552 55.822 70.1144 54.9403C74.2735 54.0586 78.0478 52.0258 80.9397 49.11C83.1637 47.0186 84.8907 44.5164 86.0091 41.7653C87.1275 39.0142 87.6124 36.0755 87.4323 33.1392C87.2522 30.2029 86.4113 27.3345 84.9638 24.7194C83.5163 22.1044 81.4944 19.801 79.0292 17.9583C77.426 16.8704 75.7447 15.8861 73.9967 15.0121C73.3909 14.7088 73.1113 14.4055 73.5307 13.7556C73.9661 12.9819 74.355 12.1864 74.6956 11.3727C75.0218 10.5928 75.4412 10.5061 76.1868 10.8094C81.9752 13.3241 86.6628 17.6063 89.4691 22.9432C92.2754 28.28 93.0312 34.3495 91.6106 40.1414C90.6568 44.4353 88.4865 48.4145 85.3243 51.667C82.162 54.9196 78.1227 57.3276 73.624 58.6419C69.142 60.1535 64.2817 60.4095 59.6447 59.3783C55.007 58.4997 50.7052 56.4867 47.1831 53.547C43.6609 50.6072 41.0459 46.8471 39.6077 42.6544C38.2279 39.0467 37.781 35.1876 38.303 31.3895C38.9699 25.3357 41.9609 19.7082 46.7279 15.5385C51.4949 11.3687 57.7185 8.93613 64.2578 8.68646C65.3108 8.59267 66.3693 8.56364 67.4264 8.59972Z" fill="#F7F7F7"/>
<path d="M82.3029 6.94173L80.2278 11.3383C81.8548 12.2069 83.3929 13.2138 84.8228 14.3464C84.8228 14.0687 85.3169 13.3283 85.4652 13.0969C85.6134 12.8655 86.1568 12.2638 86.7991 12.6341C87.4414 13.0043 87.9355 12.6341 88.1826 12.2176C88.6493 11.352 89.0458 10.4547 89.3685 9.53333C89.5308 9.14659 89.5231 8.71548 89.3472 8.33399C89.1713 7.95249 88.8415 7.65171 88.4297 7.49719C87.2439 6.98812 86.1074 6.4327 84.9216 5.96991C83.7358 5.50712 82.8958 5.6922 82.3029 6.94173Z" fill="#65C2EE"/>
</svg>
